<?xml version="1.0" encoding="utf-8" standalone="no"?>
<!DOCTYPE svg PUBLIC "-//W3C//DTD SVG 1.1//EN"
  "http://www.w3.org/Graphics/SVG/1.1/DTD/svg11.dtd">
<svg xmlns:xlink="http://www.w3.org/1999/xlink" width="720pt" height="432pt" viewBox="0 0 720 432" xmlns="http://www.w3.org/2000/svg" version="1.1">
 <metadata>
  <rdf:RDF xmlns:dc="http://purl.org/dc/elements/1.1/" xmlns:cc="http://creativecommons.org/ns#" xmlns:rdf="http://www.w3.org/1999/02/22-rdf-syntax-ns#">
   <cc:Work>
    <dc:type rdf:resource="http://purl.org/dc/dcmitype/StillImage"/>
    <dc:date>2025-03-18T20:59:22.119916</dc:date>
    <dc:format>image/svg+xml</dc:format>
    <dc:creator>
     <cc:Agent>
      <dc:title>Matplotlib v3.10.0, https://matplotlib.org/</dc:title>
     </cc:Agent>
    </dc:creator>
   </cc:Work>
  </rdf:RDF>
 </metadata>
 <defs>
  <style type="text/css">*{stroke-linejoin: round; stroke-linecap: butt}</style>
 </defs>
 <g id="figure_1">
  <g id="patch_1">
   <path d="M 0 432 
L 720 432 
L 720 0 
L 0 0 
z
" style="fill: #ffffff"/>
  </g>
  <g id="axes_1">
   <g id="patch_2">
    <path d="M 52.94 390.04 
L 709.2 390.04 
L 709.2 26.88 
L 52.94 26.88 
z
" style="fill: #ffffff"/>
   </g>
   <g id="matplotlib.axis_1">
    <g id="xtick_1">
     <g id="line2d_1">
      <path d="M 82.67055 390.04 
L 82.67055 26.88 
" clip-path="url(#p5b12e96b0b)" style="fill: none; stroke-dasharray: 2.96,1.28; stroke-dashoffset: 0; stroke: #b0b0b0; stroke-opacity: 0.5; stroke-width: 0.8"/>
     </g>
     <g id="line2d_2">
      <defs>
       <path id="m62ba4d5595" d="M 0 0 
L 0 3.5 
" style="stroke: #000000; stroke-width: 0.8"/>
      </defs>
      <g>
       <use xlink:href="#m62ba4d5595" x="82.67055" y="390.04" style="stroke: #000000; stroke-width: 0.8"/>
      </g>
     </g>
     <g id="text_1">
      <!-- 0 -->
      <g transform="translate(79.4893 404.638438) scale(0.1 -0.1)">
       <defs>
        <path id="DejaVuSans-30" d="M 2034 4250 
Q 1547 4250 1301 3770 
Q 1056 3291 1056 2328 
Q 1056 1369 1301 889 
Q 1547 409 2034 409 
Q 2525 409 2770 889 
Q 3016 1369 3016 2328 
Q 3016 3291 2770 3770 
Q 2525 4250 2034 4250 
z
M 2034 4750 
Q 2819 4750 3233 4129 
Q 3647 3509 3647 2328 
Q 3647 1150 3233 529 
Q 2819 -91 2034 -91 
Q 1250 -91 836 529 
Q 422 1150 422 2328 
Q 422 3509 836 4129 
Q 1250 4750 2034 4750 
z
" transform="scale(0.015625)"/>
       </defs>
       <use xlink:href="#DejaVuSans-30"/>
      </g>
     </g>
    </g>
    <g id="xtick_2">
     <g id="line2d_3">
      <path d="M 182.120458 390.04 
L 182.120458 26.88 
" clip-path="url(#p5b12e96b0b)" style="fill: none; stroke-dasharray: 2.96,1.28; stroke-dashoffset: 0; stroke: #b0b0b0; stroke-opacity: 0.5; stroke-width: 0.8"/>
     </g>
     <g id="line2d_4">
      <g>
       <use xlink:href="#m62ba4d5595" x="182.120458" y="390.04" style="stroke: #000000; stroke-width: 0.8"/>
      </g>
     </g>
     <g id="text_2">
      <!-- 1 -->
      <g transform="translate(178.939208 404.638438) scale(0.1 -0.1)">
       <defs>
        <path id="DejaVuSans-31" d="M 794 531 
L 1825 531 
L 1825 4091 
L 703 3866 
L 703 4441 
L 1819 4666 
L 2450 4666 
L 2450 531 
L 3481 531 
L 3481 0 
L 794 0 
L 794 531 
z
" transform="scale(0.015625)"/>
       </defs>
       <use xlink:href="#DejaVuSans-31"/>
      </g>
     </g>
    </g>
    <g id="xtick_3">
     <g id="line2d_5">
      <path d="M 281.570367 390.04 
L 281.570367 26.88 
" clip-path="url(#p5b12e96b0b)" style="fill: none; stroke-dasharray: 2.96,1.28; stroke-dashoffset: 0; stroke: #b0b0b0; stroke-opacity: 0.5; stroke-width: 0.8"/>
     </g>
     <g id="line2d_6">
      <g>
       <use xlink:href="#m62ba4d5595" x="281.570367" y="390.04" style="stroke: #000000; stroke-width: 0.8"/>
      </g>
     </g>
     <g id="text_3">
      <!-- 2 -->
      <g transform="translate(278.389117 404.638438) scale(0.1 -0.1)">
       <defs>
        <path id="DejaVuSans-32" d="M 1228 531 
L 3431 531 
L 3431 0 
L 469 0 
L 469 531 
Q 828 903 1448 1529 
Q 2069 2156 2228 2338 
Q 2531 2678 2651 2914 
Q 2772 3150 2772 3378 
Q 2772 3750 2511 3984 
Q 2250 4219 1831 4219 
Q 1534 4219 1204 4116 
Q 875 4013 500 3803 
L 500 4441 
Q 881 4594 1212 4672 
Q 1544 4750 1819 4750 
Q 2544 4750 2975 4387 
Q 3406 4025 3406 3419 
Q 3406 3131 3298 2873 
Q 3191 2616 2906 2266 
Q 2828 2175 2409 1742 
Q 1991 1309 1228 531 
z
" transform="scale(0.015625)"/>
       </defs>
       <use xlink:href="#DejaVuSans-32"/>
      </g>
     </g>
    </g>
    <g id="xtick_4">
     <g id="line2d_7">
      <path d="M 381.020275 390.04 
L 381.020275 26.88 
" clip-path="url(#p5b12e96b0b)" style="fill: none; stroke-dasharray: 2.96,1.28; stroke-dashoffset: 0; stroke: #b0b0b0; stroke-opacity: 0.5; stroke-width: 0.8"/>
     </g>
     <g id="line2d_8">
      <g>
       <use xlink:href="#m62ba4d5595" x="381.020275" y="390.04" style="stroke: #000000; stroke-width: 0.8"/>
      </g>
     </g>
     <g id="text_4">
      <!-- 3 -->
      <g transform="translate(377.839025 404.638438) scale(0.1 -0.1)">
       <defs>
        <path id="DejaVuSans-33" d="M 2597 2516 
Q 3050 2419 3304 2112 
Q 3559 1806 3559 1356 
Q 3559 666 3084 287 
Q 2609 -91 1734 -91 
Q 1441 -91 1130 -33 
Q 819 25 488 141 
L 488 750 
Q 750 597 1062 519 
Q 1375 441 1716 441 
Q 2309 441 2620 675 
Q 2931 909 2931 1356 
Q 2931 1769 2642 2001 
Q 2353 2234 1838 2234 
L 1294 2234 
L 1294 2753 
L 1863 2753 
Q 2328 2753 2575 2939 
Q 2822 3125 2822 3475 
Q 2822 3834 2567 4026 
Q 2313 4219 1838 4219 
Q 1578 4219 1281 4162 
Q 984 4106 628 3988 
L 628 4550 
Q 988 4650 1302 4700 
Q 1616 4750 1894 4750 
Q 2613 4750 3031 4423 
Q 3450 4097 3450 3541 
Q 3450 3153 3228 2886 
Q 3006 2619 2597 2516 
z
" transform="scale(0.015625)"/>
       </defs>
       <use xlink:href="#DejaVuSans-33"/>
      </g>
     </g>
    </g>
    <g id="xtick_5">
     <g id="line2d_9">
      <path d="M 480.470183 390.04 
L 480.470183 26.88 
" clip-path="url(#p5b12e96b0b)" style="fill: none; stroke-dasharray: 2.96,1.28; stroke-dashoffset: 0; stroke: #b0b0b0; stroke-opacity: 0.5; stroke-width: 0.8"/>
     </g>
     <g id="line2d_10">
      <g>
       <use xlink:href="#m62ba4d5595" x="480.470183" y="390.04" style="stroke: #000000; stroke-width: 0.8"/>
      </g>
     </g>
     <g id="text_5">
      <!-- 4 -->
      <g transform="translate(477.288933 404.638438) scale(0.1 -0.1)">
       <defs>
        <path id="DejaVuSans-34" d="M 2419 4116 
L 825 1625 
L 2419 1625 
L 2419 4116 
z
M 2253 4666 
L 3047 4666 
L 3047 1625 
L 3713 1625 
L 3713 1100 
L 3047 1100 
L 3047 0 
L 2419 0 
L 2419 1100 
L 313 1100 
L 313 1709 
L 2253 4666 
z
" transform="scale(0.015625)"/>
       </defs>
       <use xlink:href="#DejaVuSans-34"/>
      </g>
     </g>
    </g>
    <g id="xtick_6">
     <g id="line2d_11">
      <path d="M 579.920092 390.04 
L 579.920092 26.88 
" clip-path="url(#p5b12e96b0b)" style="fill: none; stroke-dasharray: 2.96,1.28; stroke-dashoffset: 0; stroke: #b0b0b0; stroke-opacity: 0.5; stroke-width: 0.8"/>
     </g>
     <g id="line2d_12">
      <g>
       <use xlink:href="#m62ba4d5595" x="579.920092" y="390.04" style="stroke: #000000; stroke-width: 0.8"/>
      </g>
     </g>
     <g id="text_6">
      <!-- 5 -->
      <g transform="translate(576.738842 404.638438) scale(0.1 -0.1)">
       <defs>
        <path id="DejaVuSans-35" d="M 691 4666 
L 3169 4666 
L 3169 4134 
L 1269 4134 
L 1269 2991 
Q 1406 3038 1543 3061 
Q 1681 3084 1819 3084 
Q 2600 3084 3056 2656 
Q 3513 2228 3513 1497 
Q 3513 744 3044 326 
Q 2575 -91 1722 -91 
Q 1428 -91 1123 -41 
Q 819 9 494 109 
L 494 744 
Q 775 591 1075 516 
Q 1375 441 1709 441 
Q 2250 441 2565 725 
Q 2881 1009 2881 1497 
Q 2881 1984 2565 2268 
Q 2250 2553 1709 2553 
Q 1456 2553 1204 2497 
Q 953 2441 691 2322 
L 691 4666 
z
" transform="scale(0.015625)"/>
       </defs>
       <use xlink:href="#DejaVuSans-35"/>
      </g>
     </g>
    </g>
    <g id="xtick_7">
     <g id="line2d_13">
      <path d="M 679.37 390.04 
L 679.37 26.88 
" clip-path="url(#p5b12e96b0b)" style="fill: none; stroke-dasharray: 2.96,1.28; stroke-dashoffset: 0; stroke: #b0b0b0; stroke-opacity: 0.5; stroke-width: 0.8"/>
     </g>
     <g id="line2d_14">
      <g>
       <use xlink:href="#m62ba4d5595" x="679.37" y="390.04" style="stroke: #000000; stroke-width: 0.8"/>
      </g>
     </g>
     <g id="text_7">
      <!-- 6 -->
      <g transform="translate(676.18875 404.638438) scale(0.1 -0.1)">
       <defs>
        <path id="DejaVuSans-36" d="M 2113 2584 
Q 1688 2584 1439 2293 
Q 1191 2003 1191 1497 
Q 1191 994 1439 701 
Q 1688 409 2113 409 
Q 2538 409 2786 701 
Q 3034 994 3034 1497 
Q 3034 2003 2786 2293 
Q 2538 2584 2113 2584 
z
M 3366 4563 
L 3366 3988 
Q 3128 4100 2886 4159 
Q 2644 4219 2406 4219 
Q 1781 4219 1451 3797 
Q 1122 3375 1075 2522 
Q 1259 2794 1537 2939 
Q 1816 3084 2150 3084 
Q 2853 3084 3261 2657 
Q 3669 2231 3669 1497 
Q 3669 778 3244 343 
Q 2819 -91 2113 -91 
Q 1303 -91 875 529 
Q 447 1150 447 2328 
Q 447 3434 972 4092 
Q 1497 4750 2381 4750 
Q 2619 4750 2861 4703 
Q 3103 4656 3366 4563 
z
" transform="scale(0.015625)"/>
       </defs>
       <use xlink:href="#DejaVuSans-36"/>
      </g>
     </g>
    </g>
    <g id="text_8">
     <!-- Frequency (GHz) -->
     <g transform="translate(339.491094 418.316562) scale(0.1 -0.1)">
      <defs>
       <path id="DejaVuSans-46" d="M 628 4666 
L 3309 4666 
L 3309 4134 
L 1259 4134 
L 1259 2759 
L 3109 2759 
L 3109 2228 
L 1259 2228 
L 1259 0 
L 628 0 
L 628 4666 
z
" transform="scale(0.015625)"/>
       <path id="DejaVuSans-72" d="M 2631 2963 
Q 2534 3019 2420 3045 
Q 2306 3072 2169 3072 
Q 1681 3072 1420 2755 
Q 1159 2438 1159 1844 
L 1159 0 
L 581 0 
L 581 3500 
L 1159 3500 
L 1159 2956 
Q 1341 3275 1631 3429 
Q 1922 3584 2338 3584 
Q 2397 3584 2469 3576 
Q 2541 3569 2628 3553 
L 2631 2963 
z
" transform="scale(0.015625)"/>
       <path id="DejaVuSans-65" d="M 3597 1894 
L 3597 1613 
L 953 1613 
Q 991 1019 1311 708 
Q 1631 397 2203 397 
Q 2534 397 2845 478 
Q 3156 559 3463 722 
L 3463 178 
Q 3153 47 2828 -22 
Q 2503 -91 2169 -91 
Q 1331 -91 842 396 
Q 353 884 353 1716 
Q 353 2575 817 3079 
Q 1281 3584 2069 3584 
Q 2775 3584 3186 3129 
Q 3597 2675 3597 1894 
z
M 3022 2063 
Q 3016 2534 2758 2815 
Q 2500 3097 2075 3097 
Q 1594 3097 1305 2825 
Q 1016 2553 972 2059 
L 3022 2063 
z
" transform="scale(0.015625)"/>
       <path id="DejaVuSans-71" d="M 947 1747 
Q 947 1113 1208 752 
Q 1469 391 1925 391 
Q 2381 391 2643 752 
Q 2906 1113 2906 1747 
Q 2906 2381 2643 2742 
Q 2381 3103 1925 3103 
Q 1469 3103 1208 2742 
Q 947 2381 947 1747 
z
M 2906 525 
Q 2725 213 2448 61 
Q 2172 -91 1784 -91 
Q 1150 -91 751 415 
Q 353 922 353 1747 
Q 353 2572 751 3078 
Q 1150 3584 1784 3584 
Q 2172 3584 2448 3432 
Q 2725 3281 2906 2969 
L 2906 3500 
L 3481 3500 
L 3481 -1331 
L 2906 -1331 
L 2906 525 
z
" transform="scale(0.015625)"/>
       <path id="DejaVuSans-75" d="M 544 1381 
L 544 3500 
L 1119 3500 
L 1119 1403 
Q 1119 906 1312 657 
Q 1506 409 1894 409 
Q 2359 409 2629 706 
Q 2900 1003 2900 1516 
L 2900 3500 
L 3475 3500 
L 3475 0 
L 2900 0 
L 2900 538 
Q 2691 219 2414 64 
Q 2138 -91 1772 -91 
Q 1169 -91 856 284 
Q 544 659 544 1381 
z
M 1991 3584 
L 1991 3584 
z
" transform="scale(0.015625)"/>
       <path id="DejaVuSans-6e" d="M 3513 2113 
L 3513 0 
L 2938 0 
L 2938 2094 
Q 2938 2591 2744 2837 
Q 2550 3084 2163 3084 
Q 1697 3084 1428 2787 
Q 1159 2491 1159 1978 
L 1159 0 
L 581 0 
L 581 3500 
L 1159 3500 
L 1159 2956 
Q 1366 3272 1645 3428 
Q 1925 3584 2291 3584 
Q 2894 3584 3203 3211 
Q 3513 2838 3513 2113 
z
" transform="scale(0.015625)"/>
       <path id="DejaVuSans-63" d="M 3122 3366 
L 3122 2828 
Q 2878 2963 2633 3030 
Q 2388 3097 2138 3097 
Q 1578 3097 1268 2742 
Q 959 2388 959 1747 
Q 959 1106 1268 751 
Q 1578 397 2138 397 
Q 2388 397 2633 464 
Q 2878 531 3122 666 
L 3122 134 
Q 2881 22 2623 -34 
Q 2366 -91 2075 -91 
Q 1284 -91 818 406 
Q 353 903 353 1747 
Q 353 2603 823 3093 
Q 1294 3584 2113 3584 
Q 2378 3584 2631 3529 
Q 2884 3475 3122 3366 
z
" transform="scale(0.015625)"/>
       <path id="DejaVuSans-79" d="M 2059 -325 
Q 1816 -950 1584 -1140 
Q 1353 -1331 966 -1331 
L 506 -1331 
L 506 -850 
L 844 -850 
Q 1081 -850 1212 -737 
Q 1344 -625 1503 -206 
L 1606 56 
L 191 3500 
L 800 3500 
L 1894 763 
L 2988 3500 
L 3597 3500 
L 2059 -325 
z
" transform="scale(0.015625)"/>
       <path id="DejaVuSans-20" transform="scale(0.015625)"/>
       <path id="DejaVuSans-28" d="M 1984 4856 
Q 1566 4138 1362 3434 
Q 1159 2731 1159 2009 
Q 1159 1288 1364 580 
Q 1569 -128 1984 -844 
L 1484 -844 
Q 1016 -109 783 600 
Q 550 1309 550 2009 
Q 550 2706 781 3412 
Q 1013 4119 1484 4856 
L 1984 4856 
z
" transform="scale(0.015625)"/>
       <path id="DejaVuSans-47" d="M 3809 666 
L 3809 1919 
L 2778 1919 
L 2778 2438 
L 4434 2438 
L 4434 434 
Q 4069 175 3628 42 
Q 3188 -91 2688 -91 
Q 1594 -91 976 548 
Q 359 1188 359 2328 
Q 359 3472 976 4111 
Q 1594 4750 2688 4750 
Q 3144 4750 3555 4637 
Q 3966 4525 4313 4306 
L 4313 3634 
Q 3963 3931 3569 4081 
Q 3175 4231 2741 4231 
Q 1884 4231 1454 3753 
Q 1025 3275 1025 2328 
Q 1025 1384 1454 906 
Q 1884 428 2741 428 
Q 3075 428 3337 486 
Q 3600 544 3809 666 
z
" transform="scale(0.015625)"/>
       <path id="DejaVuSans-48" d="M 628 4666 
L 1259 4666 
L 1259 2753 
L 3553 2753 
L 3553 4666 
L 4184 4666 
L 4184 0 
L 3553 0 
L 3553 2222 
L 1259 2222 
L 1259 0 
L 628 0 
L 628 4666 
z
" transform="scale(0.015625)"/>
       <path id="DejaVuSans-7a" d="M 353 3500 
L 3084 3500 
L 3084 2975 
L 922 459 
L 3084 459 
L 3084 0 
L 275 0 
L 275 525 
L 2438 3041 
L 353 3041 
L 353 3500 
z
" transform="scale(0.015625)"/>
       <path id="DejaVuSans-29" d="M 513 4856 
L 1013 4856 
Q 1481 4119 1714 3412 
Q 1947 2706 1947 2009 
Q 1947 1309 1714 600 
Q 1481 -109 1013 -844 
L 513 -844 
Q 928 -128 1133 580 
Q 1338 1288 1338 2009 
Q 1338 2731 1133 3434 
Q 928 4138 513 4856 
z
" transform="scale(0.015625)"/>
      </defs>
      <use xlink:href="#DejaVuSans-46"/>
      <use xlink:href="#DejaVuSans-72" transform="translate(50.269531 0)"/>
      <use xlink:href="#DejaVuSans-65" transform="translate(89.132812 0)"/>
      <use xlink:href="#DejaVuSans-71" transform="translate(150.65625 0)"/>
      <use xlink:href="#DejaVuSans-75" transform="translate(214.132812 0)"/>
      <use xlink:href="#DejaVuSans-65" transform="translate(277.511719 0)"/>
      <use xlink:href="#DejaVuSans-6e" transform="translate(339.035156 0)"/>
      <use xlink:href="#DejaVuSans-63" transform="translate(402.414062 0)"/>
      <use xlink:href="#DejaVuSans-79" transform="translate(457.394531 0)"/>
      <use xlink:href="#DejaVuSans-20" transform="translate(516.574219 0)"/>
      <use xlink:href="#DejaVuSans-28" transform="translate(548.361328 0)"/>
      <use xlink:href="#DejaVuSans-47" transform="translate(587.375 0)"/>
      <use xlink:href="#DejaVuSans-48" transform="translate(664.865234 0)"/>
      <use xlink:href="#DejaVuSans-7a" transform="translate(740.060547 0)"/>
      <use xlink:href="#DejaVuSans-29" transform="translate(792.550781 0)"/>
     </g>
    </g>
    <g id="text_9">
     <!-- 1e9 -->
     <g transform="translate(690.321875 417.316562) scale(0.1 -0.1)">
      <defs>
       <path id="DejaVuSans-39" d="M 703 97 
L 703 672 
Q 941 559 1184 500 
Q 1428 441 1663 441 
Q 2288 441 2617 861 
Q 2947 1281 2994 2138 
Q 2813 1869 2534 1725 
Q 2256 1581 1919 1581 
Q 1219 1581 811 2004 
Q 403 2428 403 3163 
Q 403 3881 828 4315 
Q 1253 4750 1959 4750 
Q 2769 4750 3195 4129 
Q 3622 3509 3622 2328 
Q 3622 1225 3098 567 
Q 2575 -91 1691 -91 
Q 1453 -91 1209 -44 
Q 966 3 703 97 
z
M 1959 2075 
Q 2384 2075 2632 2365 
Q 2881 2656 2881 3163 
Q 2881 3666 2632 3958 
Q 2384 4250 1959 4250 
Q 1534 4250 1286 3958 
Q 1038 3666 1038 3163 
Q 1038 2656 1286 2365 
Q 1534 2075 1959 2075 
z
" transform="scale(0.015625)"/>
      </defs>
      <use xlink:href="#DejaVuSans-31"/>
      <use xlink:href="#DejaVuSans-65" transform="translate(63.623047 0)"/>
      <use xlink:href="#DejaVuSans-39" transform="translate(125.146484 0)"/>
     </g>
    </g>
   </g>
   <g id="matplotlib.axis_2">
    <g id="ytick_1">
     <g id="line2d_15">
      <path d="M 52.94 352.05247 
L 709.2 352.05247 
" clip-path="url(#p5b12e96b0b)" style="fill: none; stroke-dasharray: 2.96,1.28; stroke-dashoffset: 0; stroke: #b0b0b0; stroke-opacity: 0.5; stroke-width: 0.8"/>
     </g>
     <g id="line2d_16">
      <defs>
       <path id="m6060b51ad1" d="M 0 0 
L -3.5 0 
" style="stroke: #000000; stroke-width: 0.8"/>
      </defs>
      <g>
       <use xlink:href="#m6060b51ad1" x="52.94" y="352.05247" style="stroke: #000000; stroke-width: 0.8"/>
      </g>
     </g>
     <g id="text_10">
      <!-- −50 -->
      <g transform="translate(24.835313 355.851689) scale(0.1 -0.1)">
       <defs>
        <path id="DejaVuSans-2212" d="M 678 2272 
L 4684 2272 
L 4684 1741 
L 678 1741 
L 678 2272 
z
" transform="scale(0.015625)"/>
       </defs>
       <use xlink:href="#DejaVuSans-2212"/>
       <use xlink:href="#DejaVuSans-35" transform="translate(83.789062 0)"/>
       <use xlink:href="#DejaVuSans-30" transform="translate(147.412109 0)"/>
      </g>
     </g>
    </g>
    <g id="ytick_2">
     <g id="line2d_17">
      <path d="M 52.94 286.530282 
L 709.2 286.530282 
" clip-path="url(#p5b12e96b0b)" style="fill: none; stroke-dasharray: 2.96,1.28; stroke-dashoffset: 0; stroke: #b0b0b0; stroke-opacity: 0.5; stroke-width: 0.8"/>
     </g>
     <g id="line2d_18">
      <g>
       <use xlink:href="#m6060b51ad1" x="52.94" y="286.530282" style="stroke: #000000; stroke-width: 0.8"/>
      </g>
     </g>
     <g id="text_11">
      <!-- −40 -->
      <g transform="translate(24.835313 290.329501) scale(0.1 -0.1)">
       <use xlink:href="#DejaVuSans-2212"/>
       <use xlink:href="#DejaVuSans-34" transform="translate(83.789062 0)"/>
       <use xlink:href="#DejaVuSans-30" transform="translate(147.412109 0)"/>
      </g>
     </g>
    </g>
    <g id="ytick_3">
     <g id="line2d_19">
      <path d="M 52.94 221.008093 
L 709.2 221.008093 
" clip-path="url(#p5b12e96b0b)" style="fill: none; stroke-dasharray: 2.96,1.28; stroke-dashoffset: 0; stroke: #b0b0b0; stroke-opacity: 0.5; stroke-width: 0.8"/>
     </g>
     <g id="line2d_20">
      <g>
       <use xlink:href="#m6060b51ad1" x="52.94" y="221.008093" style="stroke: #000000; stroke-width: 0.8"/>
      </g>
     </g>
     <g id="text_12">
      <!-- −30 -->
      <g transform="translate(24.835313 224.807312) scale(0.1 -0.1)">
       <use xlink:href="#DejaVuSans-2212"/>
       <use xlink:href="#DejaVuSans-33" transform="translate(83.789062 0)"/>
       <use xlink:href="#DejaVuSans-30" transform="translate(147.412109 0)"/>
      </g>
     </g>
    </g>
    <g id="ytick_4">
     <g id="line2d_21">
      <path d="M 52.94 155.485905 
L 709.2 155.485905 
" clip-path="url(#p5b12e96b0b)" style="fill: none; stroke-dasharray: 2.96,1.28; stroke-dashoffset: 0; stroke: #b0b0b0; stroke-opacity: 0.5; stroke-width: 0.8"/>
     </g>
     <g id="line2d_22">
      <g>
       <use xlink:href="#m6060b51ad1" x="52.94" y="155.485905" style="stroke: #000000; stroke-width: 0.8"/>
      </g>
     </g>
     <g id="text_13">
      <!-- −20 -->
      <g transform="translate(24.835313 159.285124) scale(0.1 -0.1)">
       <use xlink:href="#DejaVuSans-2212"/>
       <use xlink:href="#DejaVuSans-32" transform="translate(83.789062 0)"/>
       <use xlink:href="#DejaVuSans-30" transform="translate(147.412109 0)"/>
      </g>
     </g>
    </g>
    <g id="ytick_5">
     <g id="line2d_23">
      <path d="M 52.94 89.963717 
L 709.2 89.963717 
" clip-path="url(#p5b12e96b0b)" style="fill: none; stroke-dasharray: 2.96,1.28; stroke-dashoffset: 0; stroke: #b0b0b0; stroke-opacity: 0.5; stroke-width: 0.8"/>
     </g>
     <g id="line2d_24">
      <g>
       <use xlink:href="#m6060b51ad1" x="52.94" y="89.963717" style="stroke: #000000; stroke-width: 0.8"/>
      </g>
     </g>
     <g id="text_14">
      <!-- −10 -->
      <g transform="translate(24.835313 93.762935) scale(0.1 -0.1)">
       <use xlink:href="#DejaVuSans-2212"/>
       <use xlink:href="#DejaVuSans-31" transform="translate(83.789062 0)"/>
       <use xlink:href="#DejaVuSans-30" transform="translate(147.412109 0)"/>
      </g>
     </g>
    </g>
    <g id="text_15">
     <!-- S21 (dB) -->
     <g transform="translate(18.755625 230.092031) rotate(-90) scale(0.1 -0.1)">
      <defs>
       <path id="DejaVuSans-53" d="M 3425 4513 
L 3425 3897 
Q 3066 4069 2747 4153 
Q 2428 4238 2131 4238 
Q 1616 4238 1336 4038 
Q 1056 3838 1056 3469 
Q 1056 3159 1242 3001 
Q 1428 2844 1947 2747 
L 2328 2669 
Q 3034 2534 3370 2195 
Q 3706 1856 3706 1288 
Q 3706 609 3251 259 
Q 2797 -91 1919 -91 
Q 1588 -91 1214 -16 
Q 841 59 441 206 
L 441 856 
Q 825 641 1194 531 
Q 1563 422 1919 422 
Q 2459 422 2753 634 
Q 3047 847 3047 1241 
Q 3047 1584 2836 1778 
Q 2625 1972 2144 2069 
L 1759 2144 
Q 1053 2284 737 2584 
Q 422 2884 422 3419 
Q 422 4038 858 4394 
Q 1294 4750 2059 4750 
Q 2388 4750 2728 4690 
Q 3069 4631 3425 4513 
z
" transform="scale(0.015625)"/>
       <path id="DejaVuSans-64" d="M 2906 2969 
L 2906 4863 
L 3481 4863 
L 3481 0 
L 2906 0 
L 2906 525 
Q 2725 213 2448 61 
Q 2172 -91 1784 -91 
Q 1150 -91 751 415 
Q 353 922 353 1747 
Q 353 2572 751 3078 
Q 1150 3584 1784 3584 
Q 2172 3584 2448 3432 
Q 2725 3281 2906 2969 
z
M 947 1747 
Q 947 1113 1208 752 
Q 1469 391 1925 391 
Q 2381 391 2643 752 
Q 2906 1113 2906 1747 
Q 2906 2381 2643 2742 
Q 2381 3103 1925 3103 
Q 1469 3103 1208 2742 
Q 947 2381 947 1747 
z
" transform="scale(0.015625)"/>
       <path id="DejaVuSans-42" d="M 1259 2228 
L 1259 519 
L 2272 519 
Q 2781 519 3026 730 
Q 3272 941 3272 1375 
Q 3272 1813 3026 2020 
Q 2781 2228 2272 2228 
L 1259 2228 
z
M 1259 4147 
L 1259 2741 
L 2194 2741 
Q 2656 2741 2882 2914 
Q 3109 3088 3109 3444 
Q 3109 3797 2882 3972 
Q 2656 4147 2194 4147 
L 1259 4147 
z
M 628 4666 
L 2241 4666 
Q 2963 4666 3353 4366 
Q 3744 4066 3744 3513 
Q 3744 3084 3544 2831 
Q 3344 2578 2956 2516 
Q 3422 2416 3680 2098 
Q 3938 1781 3938 1306 
Q 3938 681 3513 340 
Q 3088 0 2303 0 
L 628 0 
L 628 4666 
z
" transform="scale(0.015625)"/>
      </defs>
      <use xlink:href="#DejaVuSans-53"/>
      <use xlink:href="#DejaVuSans-32" transform="translate(63.476562 0)"/>
      <use xlink:href="#DejaVuSans-31" transform="translate(127.099609 0)"/>
      <use xlink:href="#DejaVuSans-20" transform="translate(190.722656 0)"/>
      <use xlink:href="#DejaVuSans-28" transform="translate(222.509766 0)"/>
      <use xlink:href="#DejaVuSans-64" transform="translate(261.523438 0)"/>
      <use xlink:href="#DejaVuSans-42" transform="translate(325 0)"/>
      <use xlink:href="#DejaVuSans-29" transform="translate(393.603516 0)"/>
     </g>
    </g>
   </g>
   <g id="line2d_25">
    <path d="M 82.77 48.34647 
L 83.9632 43.444403 
L 85.1564 44.685984 
L 86.3496 45.284366 
L 87.5428 46.557465 
L 88.736 46.61789 
L 89.9292 46.517804 
L 91.1224 46.955398 
L 93.5088 45.612445 
L 94.702 45.179687 
L 97.0884 43.979205 
L 98.2816 44.59376 
L 99.4748 44.558665 
L 100.668 45.3091 
L 101.8612 44.496337 
L 103.0544 45.415656 
L 104.2476 45.097557 
L 105.4408 45.138329 
L 107.8272 46.648136 
L 109.0204 47.744599 
L 110.2136 49.627925 
L 111.4068 50.480466 
L 112.6 51.537444 
L 113.7932 52.054467 
L 114.9864 51.912661 
L 118.566 50.058029 
L 120.9524 47.732042 
L 122.1456 47.245024 
L 123.3388 47.08393 
L 124.532 46.451219 
L 125.7252 46.75086 
L 126.9184 46.100164 
L 128.1116 46.538796 
L 129.3048 45.799039 
L 130.498 46.883259 
L 131.6912 47.033948 
L 132.8844 47.668802 
L 134.0776 48.462511 
L 135.2708 50.297148 
L 136.464 50.245715 
L 137.6572 51.600493 
L 138.8504 52.381255 
L 140.0436 52.661566 
L 141.2368 53.593077 
L 142.43 53.110012 
L 143.6232 53.274805 
L 146.0096 52.187956 
L 147.2028 50.677065 
L 148.396 50.709836 
L 149.5892 48.752714 
L 151.9756 47.016954 
L 153.1688 46.770707 
L 154.362 46.270932 
L 155.5552 46.075866 
L 156.7484 46.835779 
L 157.9416 46.740265 
L 159.1348 47.715483 
L 160.328 47.935035 
L 161.5212 48.711506 
L 162.7144 49.964533 
L 163.9076 50.272833 
L 165.1008 53.076655 
L 166.294 53.397041 
L 167.4872 54.306483 
L 168.6804 54.939606 
L 169.8736 54.879078 
L 171.0668 54.571081 
L 173.4532 53.189995 
L 174.6464 52.527672 
L 175.8396 50.245869 
L 179.4192 48.047994 
L 180.6124 48.151662 
L 181.8056 47.519089 
L 182.9988 48.135331 
L 184.192 47.963164 
L 185.3852 48.579159 
L 186.5784 48.782808 
L 187.7716 49.103128 
L 188.9648 49.961895 
L 190.158 51.225967 
L 191.3512 52.118259 
L 192.5444 53.393237 
L 193.7376 53.863637 
L 194.9308 54.506181 
L 196.124 54.448774 
L 197.3172 53.705157 
L 198.5104 54.045261 
L 199.7036 53.45351 
L 200.8968 53.351235 
L 202.09 51.954492 
L 204.4764 51.593616 
L 205.6696 51.281727 
L 206.8628 51.243833 
L 208.056 51.65077 
L 209.2492 51.546124 
L 210.4424 51.740431 
L 211.6356 52.218846 
L 214.022 52.512865 
L 215.2152 52.814195 
L 216.4084 52.934677 
L 217.6016 52.383488 
L 218.7948 53.207218 
L 219.988 53.5096 
L 221.1812 53.496895 
L 222.3744 54.093353 
L 223.5676 54.133425 
L 224.7608 53.841609 
L 225.954 54.30551 
L 227.1472 53.396019 
L 228.3404 54.489666 
L 229.5336 54.729397 
L 230.7268 54.525293 
L 231.92 55.436608 
L 233.1132 56.167951 
L 234.3064 57.090695 
L 235.4996 58.680156 
L 236.6928 60.506242 
L 237.886 60.661233 
L 239.0792 60.633849 
L 240.2724 60.859969 
L 241.4656 60.467146 
L 242.6588 59.178363 
L 243.852 58.473204 
L 245.0452 57.233859 
L 246.2384 56.998598 
L 247.4316 56.213612 
L 248.6248 55.842578 
L 249.818 56.170079 
L 251.0112 56.222862 
L 252.2044 56.775676 
L 253.3976 57.205962 
L 254.5908 57.921218 
L 255.784 58.829128 
L 256.9772 60.15856 
L 258.1704 61.938735 
L 259.3636 64.403748 
L 260.5568 65.251685 
L 262.9432 68.560912 
L 264.1364 69.251426 
L 265.3296 70.729192 
L 266.5228 74.071174 
L 267.716 78.699235 
L 268.9092 84.575977 
L 270.1024 91.030366 
L 271.2956 98.864541 
L 272.4888 103.898167 
L 273.682 110.427269 
L 274.8752 116.108771 
L 276.0684 123.193164 
L 277.2616 132.590025 
L 278.4548 139.180471 
L 279.648 158.832647 
L 280.8412 163.513941 
L 283.2276 182.726644 
L 284.4208 186.823471 
L 285.614 210.008156 
L 286.8072 274.499234 
L 288.0004 259.11501 
L 289.1936 296.903285 
L 290.3868 356.373469 
L 291.58 373.532727 
L 292.7732 328.844702 
L 293.9664 305.997836 
L 297.546 252.997786 
L 298.7392 300.531006 
L 299.9324 236.120769 
L 301.1256 202.171274 
L 302.3188 177.083923 
L 303.512 174.34685 
L 304.7052 163.913546 
L 305.8984 158.027533 
L 307.0916 150.38742 
L 308.2848 145.186006 
L 309.478 143.132997 
L 310.6712 138.496466 
L 311.8644 137.41498 
L 313.0576 138.333799 
L 314.2508 137.013329 
L 315.444 132.82934 
L 316.6372 130.2835 
L 317.8304 127.472971 
L 319.0236 125.241505 
L 321.41 112.053921 
L 322.6032 107.739727 
L 323.7964 98.733909 
L 324.9896 95.237289 
L 326.1828 88.209416 
L 327.376 84.326407 
L 328.5692 80.969044 
L 329.7624 78.507207 
L 330.9556 77.664556 
L 332.1488 76.440052 
L 333.342 77.167383 
L 334.5352 78.995005 
L 335.7284 78.947509 
L 336.9216 79.708252 
L 338.1148 81.665015 
L 339.308 83.096203 
L 340.5012 83.3687 
L 341.6944 82.081862 
L 342.8876 81.058624 
L 345.274 77.614027 
L 346.4672 77.361778 
L 347.6604 76.396653 
L 348.8536 76.939407 
L 351.24 77.454635 
L 352.4332 78.077707 
L 353.6264 78.009237 
L 354.8196 78.083032 
L 356.0128 77.099953 
L 357.206 76.534731 
L 358.3992 74.711725 
L 359.5924 75.801339 
L 360.7856 75.786924 
L 361.9788 77.433045 
L 363.172 77.31525 
L 364.3652 77.730576 
L 367.9448 78.618996 
L 369.138 78.614341 
L 370.3312 79.242169 
L 371.5244 79.592121 
L 372.7176 80.177235 
L 373.9108 82.064586 
L 375.104 82.768137 
L 376.2972 84.007524 
L 377.4904 84.009518 
L 378.6836 83.479301 
L 379.8768 82.366653 
L 381.07 80.069462 
L 382.2632 79.801847 
L 383.4564 79.180396 
L 384.6496 77.663116 
L 385.8428 77.942485 
L 387.036 78.616995 
L 388.2292 77.988705 
L 389.4224 78.685428 
L 390.6156 77.705574 
L 391.8088 77.722743 
L 393.002 77.224285 
L 394.1952 77.377683 
L 396.5816 78.282786 
L 397.7748 79.092262 
L 398.968 80.144057 
L 401.3544 80.446865 
L 402.5476 81.511386 
L 403.7408 79.763037 
L 404.934 79.857565 
L 406.1272 78.723242 
L 407.3204 76.937631 
L 408.5136 76.034413 
L 409.7068 74.486763 
L 410.9 74.636509 
L 412.0932 75.845476 
L 413.2864 75.383119 
L 414.4796 75.106133 
L 415.6728 74.637027 
L 416.866 73.982451 
L 418.0592 74.41014 
L 419.2524 75.188982 
L 420.4456 73.435741 
L 421.6388 74.522622 
L 422.832 74.763252 
L 424.0252 76.412537 
L 425.2184 76.528814 
L 426.4116 77.67541 
L 427.6048 77.516471 
L 428.798 77.077793 
L 429.9912 76.788056 
L 431.1844 77.06155 
L 432.3776 76.619633 
L 433.5708 75.719193 
L 434.764 75.355585 
L 435.9572 76.061855 
L 437.1504 75.648083 
L 438.3436 75.102216 
L 439.5368 75.650122 
L 440.73 74.696367 
L 441.9232 74.916802 
L 443.1164 76.483988 
L 444.3096 76.002912 
L 445.5028 76.209656 
L 447.8892 79.252569 
L 450.2756 84.428588 
L 451.4688 84.567897 
L 452.662 86.503957 
L 453.8552 87.085834 
L 455.0484 87.135032 
L 456.2416 86.828629 
L 457.4348 86.963645 
L 458.628 86.293883 
L 459.8212 86.798333 
L 461.0144 85.864431 
L 462.2076 85.939072 
L 463.4008 86.552246 
L 464.594 86.556703 
L 465.7872 86.964889 
L 466.9804 87.76838 
L 468.1736 87.695846 
L 469.3668 88.060791 
L 470.56 89.266743 
L 471.7532 91.204093 
L 472.9464 93.799832 
L 474.1396 96.802699 
L 475.3328 97.8239 
L 476.526 103.700712 
L 477.7192 104.879604 
L 478.9124 104.7285 
L 480.1056 106.065851 
L 481.2988 105.597897 
L 482.492 103.282336 
L 483.6852 99.381074 
L 484.8784 99.000735 
L 486.0716 98.910976 
L 487.2648 97.229341 
L 488.458 97.636659 
L 489.6512 97.689588 
L 490.8444 99.134223 
L 492.0376 99.046496 
L 493.2308 99.428221 
L 494.424 99.335528 
L 496.8104 102.018154 
L 498.0036 105.837517 
L 499.1968 110.5613 
L 500.39 112.317807 
L 501.5832 113.568911 
L 502.7764 116.186529 
L 503.9696 117.743867 
L 505.1628 118.196919 
L 506.356 117.663686 
L 507.5492 115.542051 
L 508.7424 114.707184 
L 509.9356 112.734761 
L 511.1288 109.495096 
L 512.322 106.645898 
L 513.5152 105.370999 
L 514.7084 103.554513 
L 515.9016 104.712379 
L 517.0948 104.946825 
L 518.288 104.482825 
L 519.4812 105.394238 
L 520.6744 105.223989 
L 521.8676 105.970179 
L 523.0608 106.958709 
L 524.254 109.758463 
L 525.4472 113.453061 
L 526.6404 115.134841 
L 527.8336 115.975261 
L 529.0268 117.707951 
L 530.22 120.457497 
L 531.4132 119.327714 
L 532.6064 119.172525 
L 533.7996 118.49812 
L 534.9928 116.077766 
L 538.5724 110.087556 
L 539.7656 107.283491 
L 540.9588 106.309031 
L 542.152 106.508204 
L 543.3452 106.381187 
L 544.5384 104.348563 
L 545.7316 105.440383 
L 546.9248 103.609144 
L 548.118 103.86172 
L 549.3112 105.254932 
L 550.5044 106.871553 
L 551.6976 107.996383 
L 552.8908 107.524845 
L 554.084 109.986551 
L 555.2772 125.574659 
L 556.4704 124.611607 
L 557.6636 125.076241 
L 558.8568 126.258379 
L 560.05 124.838256 
L 561.2432 125.834908 
L 562.4364 122.348702 
L 563.6296 124.443103 
L 564.8228 124.405143 
L 566.016 124.70825 
L 567.2092 124.515243 
L 568.4024 126.390737 
L 569.5956 128.981202 
L 570.7888 127.481911 
L 571.982 129.638382 
L 573.1752 131.370959 
L 574.3684 127.424776 
L 575.5616 128.643378 
L 576.7548 126.073606 
L 577.948 126.087653 
L 579.1412 124.533871 
L 580.3344 125.179799 
L 581.5276 126.049483 
L 582.7208 125.107017 
L 583.914 126.966537 
L 585.1072 127.665592 
L 586.3004 130.072052 
L 587.4936 134.904077 
L 588.6868 135.412019 
L 589.88 140.973194 
L 591.0732 148.460871 
L 592.2664 150.290164 
L 593.4596 153.972254 
L 594.6528 160.871743 
L 595.846 164.966829 
L 597.0392 166.437285 
L 598.2324 169.766974 
L 599.4256 166.813277 
L 600.6188 167.503564 
L 601.812 162.109091 
L 603.0052 154.775443 
L 604.1984 153.77649 
L 605.3916 148.739169 
L 606.5848 148.351016 
L 607.778 144.720881 
L 608.9712 142.863735 
L 610.1644 141.616899 
L 611.3576 142.765134 
L 612.5508 147.68537 
L 613.744 154.23918 
L 614.9372 162.889965 
L 616.1304 166.285794 
L 617.3236 170.118619 
L 618.5168 173.072874 
L 619.71 180.217843 
L 620.9032 180.839701 
L 622.0964 185.001699 
L 623.2896 182.565698 
L 624.4828 180.481311 
L 625.676 188.340806 
L 626.8692 188.717732 
L 628.0624 180.965589 
L 629.2556 187.890429 
L 630.4488 184.529635 
L 631.642 182.453004 
L 632.8352 174.788332 
L 634.0284 174.479709 
L 635.2216 169.257952 
L 636.4148 168.854269 
L 637.608 165.572429 
L 638.8012 163.092305 
L 639.9944 162.582111 
L 641.1876 163.772131 
L 642.3808 167.891899 
L 643.574 171.276796 
L 644.7672 182.336393 
L 645.9604 178.673589 
L 647.1536 187.303094 
L 648.3468 181.515224 
L 649.54 188.444884 
L 650.7332 188.06817 
L 651.9264 196.413522 
L 653.1196 208.079698 
L 654.3128 204.673481 
L 655.506 207.304346 
L 656.6992 193.065748 
L 657.8924 211.024119 
L 659.0856 186.462252 
L 660.2788 188.852442 
L 661.472 183.255597 
L 662.6652 176.673019 
L 663.8584 180.957758 
L 665.0516 178.837403 
L 666.2448 173.314749 
L 667.438 169.245045 
L 668.6312 172.497316 
L 669.8244 173.292387 
L 671.0176 175.371774 
L 672.2108 159.115297 
L 673.404 161.679815 
L 674.5972 174.069255 
L 675.7904 182.415931 
L 676.9836 212.175357 
L 678.1768 214.504795 
L 679.37 232.404483 
L 679.37 232.404483 
" clip-path="url(#p5b12e96b0b)" style="fill: none; stroke: #1f77b4; stroke-width: 1.5; stroke-linecap: square"/>
   </g>
   <g id="line2d_26">
    <path d="M 82.77 47.556332 
L 83.9632 43.387273 
L 85.1564 44.707675 
L 86.3496 45.175662 
L 87.5428 46.070888 
L 88.736 46.794952 
L 89.9292 47.000363 
L 91.1224 46.83889 
L 92.3156 46.373164 
L 93.5088 45.1306 
L 94.702 44.955753 
L 95.8952 44.098997 
L 97.0884 44.672559 
L 98.2816 44.257047 
L 99.4748 44.550855 
L 100.668 44.972268 
L 101.8612 45.02944 
L 103.0544 44.856037 
L 104.2476 44.996686 
L 105.4408 45.462782 
L 106.634 46.334723 
L 107.8272 46.790284 
L 109.0204 48.566567 
L 110.2136 49.57651 
L 111.4068 50.797363 
L 112.6 51.566121 
L 113.7932 51.753887 
L 114.9864 51.316015 
L 116.1796 50.522403 
L 117.3728 51.191103 
L 118.566 49.969476 
L 119.7592 49.403214 
L 120.9524 47.605047 
L 123.3388 46.647933 
L 126.9184 46.246716 
L 129.3048 45.762977 
L 130.498 46.544571 
L 131.6912 46.836231 
L 134.0776 49.02951 
L 135.2708 49.697055 
L 136.464 51.030286 
L 137.6572 51.713654 
L 138.8504 52.759552 
L 140.0436 52.609507 
L 141.2368 53.361889 
L 142.43 53.503139 
L 143.6232 52.925353 
L 146.0096 52.130787 
L 147.2028 50.905692 
L 148.396 50.451287 
L 149.5892 49.311425 
L 150.7824 47.874277 
L 151.9756 47.443225 
L 153.1688 47.187545 
L 154.362 46.027887 
L 155.5552 46.395736 
L 156.7484 46.412287 
L 157.9416 45.879673 
L 159.1348 47.427102 
L 160.328 48.179721 
L 161.5212 48.562914 
L 163.9076 50.547639 
L 165.1008 52.74587 
L 166.294 54.122363 
L 167.4872 53.748961 
L 168.6804 55.026666 
L 169.8736 55.855148 
L 171.0668 54.692474 
L 172.26 54.654614 
L 173.4532 52.906586 
L 174.6464 51.418977 
L 177.0328 49.544897 
L 179.4192 48.391618 
L 181.8056 48.00461 
L 182.9988 48.377405 
L 184.192 49.037359 
L 185.3852 49.02348 
L 186.5784 49.48486 
L 187.7716 49.428843 
L 191.3512 53.160147 
L 192.5444 53.541319 
L 193.7376 54.173865 
L 194.9308 54.208318 
L 196.124 55.154543 
L 197.3172 55.374531 
L 198.5104 54.946229 
L 199.7036 54.194132 
L 200.8968 54.901414 
L 203.2832 52.895191 
L 204.4764 53.261991 
L 205.6696 53.861897 
L 206.8628 53.955141 
L 208.056 54.543369 
L 209.2492 55.37093 
L 210.4424 54.912936 
L 211.6356 56.625605 
L 212.8288 56.187929 
L 214.022 55.891483 
L 215.2152 57.169325 
L 216.4084 57.158183 
L 218.7948 57.540927 
L 221.1812 59.289331 
L 223.5676 60.337838 
L 224.7608 61.634445 
L 225.954 61.896637 
L 228.3404 64.323163 
L 230.7268 68.687431 
L 233.1132 74.444342 
L 234.3064 76.508445 
L 235.4996 80.576142 
L 236.6928 82.720831 
L 237.886 86.487204 
L 239.0792 88.505412 
L 240.2724 90.774191 
L 242.6588 98.529324 
L 243.852 99.481259 
L 247.4316 104.87142 
L 248.6248 105.25968 
L 249.818 105.022247 
L 251.0112 107.309943 
L 252.2044 108.532436 
L 254.5908 114.109343 
L 255.784 118.002011 
L 256.9772 120.872097 
L 258.1704 124.512931 
L 259.3636 129.701418 
L 261.75 134.610068 
L 262.9432 134.083605 
L 264.1364 133.89157 
L 265.3296 135.441498 
L 266.5228 130.041277 
L 267.716 127.913676 
L 268.9092 122.646996 
L 271.2956 114.507922 
L 272.4888 111.057784 
L 273.682 106.657543 
L 274.8752 104.049196 
L 276.0684 100.803864 
L 277.2616 100.146789 
L 278.4548 100.509649 
L 279.648 100.286303 
L 280.8412 103.057427 
L 282.0344 101.811006 
L 283.2276 103.279111 
L 284.4208 103.210642 
L 288.0004 98.054554 
L 289.1936 95.29241 
L 290.3868 93.466426 
L 291.58 91.420712 
L 292.7732 89.001115 
L 293.9664 85.107851 
L 295.1596 82.951849 
L 296.3528 81.483172 
L 298.7392 76.934717 
L 299.9324 75.401272 
L 301.1256 73.450778 
L 302.3188 73.203903 
L 303.512 73.336468 
L 304.7052 74.039704 
L 305.8984 73.537298 
L 307.0916 73.797067 
L 308.2848 75.056133 
L 309.478 74.228864 
L 310.6712 74.942712 
L 311.8644 76.017577 
L 314.2508 74.656695 
L 315.444 75.366305 
L 316.6372 75.337711 
L 317.8304 74.811549 
L 319.0236 73.84013 
L 320.2168 74.717521 
L 321.41 74.413074 
L 322.6032 74.775271 
L 323.7964 74.881928 
L 326.1828 73.757162 
L 328.5692 73.618717 
L 329.7624 72.946492 
L 330.9556 73.738016 
L 332.1488 73.674523 
L 333.342 74.368376 
L 334.5352 75.90203 
L 335.7284 76.0697 
L 336.9216 76.122287 
L 338.1148 76.911171 
L 339.308 77.143727 
L 340.5012 76.785805 
L 342.8876 78.170333 
L 344.0808 79.275904 
L 345.274 79.721471 
L 346.4672 80.591812 
L 347.6604 82.450876 
L 348.8536 83.256194 
L 350.0468 83.44063 
L 351.24 83.841903 
L 352.4332 82.315249 
L 353.6264 82.293862 
L 354.8196 82.028813 
L 356.0128 81.285777 
L 357.206 81.58126 
L 358.3992 81.383862 
L 359.5924 83.005858 
L 360.7856 82.72761 
L 361.9788 83.292498 
L 363.172 83.997667 
L 364.3652 83.888089 
L 365.5584 83.603417 
L 366.7516 83.524801 
L 367.9448 84.050853 
L 369.138 85.205067 
L 370.3312 85.085061 
L 371.5244 86.440636 
L 372.7176 88.998279 
L 373.9108 89.542037 
L 375.104 88.573107 
L 376.2972 89.055322 
L 377.4904 88.641407 
L 378.6836 87.851005 
L 379.8768 86.451473 
L 381.07 86.191106 
L 382.2632 86.403913 
L 383.4564 86.454114 
L 384.6496 86.214303 
L 387.036 87.961092 
L 388.2292 86.55893 
L 389.4224 87.550391 
L 390.6156 87.887235 
L 391.8088 86.482383 
L 393.002 86.385334 
L 394.1952 86.89657 
L 395.3884 87.166464 
L 396.5816 87.157081 
L 397.7748 87.555467 
L 398.968 87.726987 
L 400.1612 87.676107 
L 401.3544 88.674573 
L 402.5476 87.285864 
L 403.7408 87.199357 
L 404.934 86.42885 
L 407.3204 85.404962 
L 408.5136 85.496252 
L 409.7068 84.730793 
L 410.9 85.178121 
L 412.0932 87.304158 
L 413.2864 87.194412 
L 414.4796 86.165284 
L 415.6728 87.67979 
L 416.866 88.793473 
L 418.0592 87.816954 
L 419.2524 87.8031 
L 420.4456 87.578072 
L 421.6388 88.384543 
L 422.832 89.724757 
L 424.0252 89.325613 
L 425.2184 89.995446 
L 426.4116 90.280164 
L 427.6048 89.141063 
L 428.798 89.917614 
L 429.9912 87.980977 
L 431.1844 88.876096 
L 432.3776 90.995299 
L 433.5708 91.587087 
L 434.764 92.426354 
L 435.9572 93.917416 
L 440.73 98.749081 
L 441.9232 98.856255 
L 443.1164 100.3266 
L 444.3096 99.613863 
L 445.5028 100.871187 
L 446.696 100.837382 
L 447.8892 100.505081 
L 449.0824 100.41728 
L 450.2756 102.834069 
L 451.4688 102.898553 
L 452.662 102.18027 
L 453.8552 103.935532 
L 455.0484 103.301927 
L 456.2416 103.9511 
L 457.4348 101.868553 
L 459.8212 102.770851 
L 461.0144 102.80273 
L 462.2076 103.365384 
L 464.594 102.628497 
L 465.7872 104.278308 
L 466.9804 102.525832 
L 468.1736 105.571467 
L 469.3668 105.668669 
L 470.56 107.679855 
L 471.7532 108.342192 
L 472.9464 110.120991 
L 474.1396 110.943276 
L 475.3328 112.032473 
L 476.526 115.415014 
L 477.7192 114.776747 
L 478.9124 116.02122 
L 480.1056 116.005341 
L 481.2988 114.088626 
L 482.492 114.707275 
L 483.6852 112.357265 
L 484.8784 112.799635 
L 486.0716 110.329017 
L 487.2648 110.832853 
L 488.458 110.122605 
L 489.6512 109.89214 
L 490.8444 110.966968 
L 492.0376 112.929148 
L 493.2308 111.37876 
L 494.424 113.047372 
L 495.6172 112.556775 
L 498.0036 117.341508 
L 499.1968 120.626406 
L 500.39 121.996329 
L 501.5832 125.833039 
L 502.7764 123.911241 
L 503.9696 124.596233 
L 505.1628 125.736112 
L 507.5492 124.875449 
L 508.7424 121.891236 
L 511.1288 116.862362 
L 512.322 118.197812 
L 513.5152 116.024272 
L 515.9016 115.385111 
L 517.0948 115.650346 
L 518.288 114.777755 
L 519.4812 115.200519 
L 520.6744 115.772339 
L 521.8676 117.457111 
L 523.0608 118.413915 
L 524.254 119.927964 
L 525.4472 122.760534 
L 526.6404 123.703157 
L 527.8336 125.487303 
L 529.0268 125.483591 
L 530.22 126.855322 
L 531.4132 125.967976 
L 533.7996 124.549849 
L 534.9928 123.054518 
L 536.186 120.866247 
L 538.5724 119.30079 
L 539.7656 119.470097 
L 540.9588 118.974379 
L 542.152 117.509942 
L 543.3452 117.284522 
L 544.5384 117.471226 
L 545.7316 117.858236 
L 546.9248 116.614107 
L 548.118 117.093357 
L 549.3112 116.424056 
L 550.5044 117.312361 
L 551.6976 115.021433 
L 552.8908 117.448096 
L 555.2772 121.303241 
L 556.4704 124.609812 
L 557.6636 126.776161 
L 558.8568 128.601378 
L 560.05 128.090106 
L 561.2432 126.986658 
L 562.4364 126.368099 
L 563.6296 128.640608 
L 564.8228 129.534056 
L 567.2092 133.97901 
L 568.4024 132.479065 
L 569.5956 133.840682 
L 570.7888 132.130695 
L 571.982 133.466143 
L 573.1752 130.734505 
L 574.3684 130.520733 
L 575.5616 129.28019 
L 576.7548 128.321774 
L 577.948 128.092983 
L 579.1412 127.717086 
L 580.3344 126.721031 
L 581.5276 128.458782 
L 582.7208 128.447591 
L 583.914 132.162143 
L 585.1072 133.383972 
L 586.3004 136.377868 
L 587.4936 139.86805 
L 588.6868 146.172261 
L 589.88 149.899441 
L 591.0732 156.022911 
L 592.2664 155.614153 
L 593.4596 155.353512 
L 594.6528 157.188557 
L 595.846 159.267719 
L 597.0392 161.691248 
L 598.2324 159.397495 
L 599.4256 159.692567 
L 600.6188 158.151206 
L 601.812 154.179102 
L 603.0052 153.620242 
L 604.1984 152.195433 
L 605.3916 149.356996 
L 606.5848 148.622282 
L 607.778 148.83256 
L 608.9712 149.987952 
L 610.1644 151.501409 
L 611.3576 151.74254 
L 612.5508 151.447462 
L 613.744 152.631715 
L 614.9372 157.546129 
L 616.1304 159.32617 
L 617.3236 164.778847 
L 618.5168 167.254278 
L 619.71 168.723469 
L 620.9032 172.477278 
L 622.0964 168.467588 
L 623.2896 172.677052 
L 624.4828 173.887078 
L 625.676 170.233493 
L 626.8692 165.742441 
L 628.0624 166.235722 
L 629.2556 176.207703 
L 630.4488 172.786438 
L 631.642 163.087674 
L 632.8352 159.979428 
L 634.0284 164.270301 
L 635.2216 163.544478 
L 637.608 157.296457 
L 639.9944 159.007937 
L 641.1876 157.512766 
L 642.3808 166.339607 
L 643.574 163.827031 
L 644.7672 165.868279 
L 645.9604 173.303527 
L 647.1536 170.837063 
L 648.3468 180.120543 
L 649.54 176.055241 
L 650.7332 182.301087 
L 653.1196 176.279512 
L 654.3128 186.126478 
L 655.506 189.989157 
L 656.6992 187.852438 
L 657.8924 179.747827 
L 659.0856 191.360961 
L 661.472 167.283819 
L 662.6652 168.93783 
L 663.8584 165.596015 
L 665.0516 165.333763 
L 666.2448 164.398181 
L 667.438 169.637165 
L 668.6312 167.162995 
L 669.8244 167.018278 
L 671.0176 170.764476 
L 672.2108 172.607591 
L 673.404 170.235795 
L 674.5972 179.448388 
L 676.9836 189.17778 
L 678.1768 220.51556 
L 679.37 215.41398 
L 679.37 215.41398 
" clip-path="url(#p5b12e96b0b)" style="fill: none; stroke: #ff7f0e; stroke-width: 1.5; stroke-linecap: square"/>
   </g>
   <g id="line2d_27">
    <path d="M 82.77 47.374159 
L 83.9632 43.474408 
L 85.1564 44.722005 
L 86.3496 45.537502 
L 87.5428 46.793031 
L 88.736 47.025746 
L 89.9292 47.144257 
L 91.1224 46.441048 
L 92.3156 46.084423 
L 93.5088 45.222387 
L 94.702 45.187705 
L 95.8952 44.933704 
L 97.0884 44.414988 
L 98.2816 44.725442 
L 99.4748 44.611555 
L 100.668 45.678248 
L 101.8612 45.100022 
L 105.4408 45.387967 
L 106.634 46.07198 
L 107.8272 46.965085 
L 111.4068 50.591634 
L 112.6 50.989225 
L 113.7932 51.613053 
L 114.9864 51.265949 
L 116.1796 51.086455 
L 117.3728 51.092099 
L 118.566 49.843288 
L 119.7592 48.768501 
L 122.1456 47.049235 
L 123.3388 46.883256 
L 124.532 46.347413 
L 125.7252 45.45883 
L 126.9184 45.528643 
L 128.1116 46.247041 
L 129.3048 46.403959 
L 130.498 46.719284 
L 131.6912 47.716414 
L 132.8844 48.154093 
L 134.0776 49.202977 
L 135.2708 50.048637 
L 136.464 50.625394 
L 138.8504 52.66818 
L 140.0436 53.12361 
L 141.2368 53.40967 
L 142.43 53.956256 
L 146.0096 51.924726 
L 147.2028 51.716714 
L 148.396 50.817663 
L 149.5892 49.232128 
L 150.7824 48.10141 
L 153.1688 46.906714 
L 154.362 46.498634 
L 155.5552 46.595456 
L 156.7484 47.315523 
L 157.9416 47.222629 
L 159.1348 48.111114 
L 160.328 48.707294 
L 161.5212 49.626994 
L 162.7144 49.92706 
L 163.9076 51.731977 
L 165.1008 53.009118 
L 167.4872 55.038402 
L 168.6804 56.415109 
L 169.8736 55.981192 
L 171.0668 55.172187 
L 172.26 55.346373 
L 173.4532 53.758516 
L 175.8396 51.378784 
L 177.0328 50.754521 
L 178.226 49.071029 
L 179.4192 49.400778 
L 180.6124 48.913031 
L 181.8056 49.298162 
L 182.9988 49.508968 
L 184.192 50.615132 
L 185.3852 50.802439 
L 186.5784 52.096504 
L 187.7716 52.839232 
L 188.9648 53.793138 
L 190.158 55.115165 
L 191.3512 57.159675 
L 192.5444 57.496116 
L 193.7376 58.950273 
L 194.9308 59.037106 
L 196.124 59.637565 
L 197.3172 59.584464 
L 198.5104 59.270048 
L 199.7036 59.400178 
L 202.09 59.140708 
L 203.2832 59.636595 
L 204.4764 59.892284 
L 205.6696 61.241282 
L 206.8628 61.295017 
L 208.056 63.038742 
L 209.2492 63.298855 
L 210.4424 65.613766 
L 211.6356 65.966664 
L 212.8288 66.578433 
L 216.4084 67.191744 
L 217.6016 66.952437 
L 218.7948 68.281115 
L 219.988 68.707758 
L 221.1812 69.310432 
L 222.3744 70.478674 
L 223.5676 71.319092 
L 225.954 74.749669 
L 227.1472 74.954585 
L 228.3404 77.345135 
L 230.7268 79.356927 
L 231.92 80.924729 
L 233.1132 84.053085 
L 235.4996 87.951981 
L 237.886 92.545894 
L 239.0792 97.042998 
L 240.2724 98.206153 
L 241.4656 98.387944 
L 242.6588 100.247813 
L 243.852 100.077628 
L 245.0452 102.923159 
L 246.2384 103.809695 
L 247.4316 105.431857 
L 248.6248 110.509649 
L 249.818 113.639759 
L 251.0112 115.260128 
L 252.2044 117.246167 
L 253.3976 118.53654 
L 254.5908 117.288144 
L 255.784 119.476501 
L 256.9772 115.773853 
L 258.1704 114.821789 
L 260.5568 109.970567 
L 261.75 104.338924 
L 262.9432 97.939822 
L 264.1364 94.6429 
L 265.3296 89.080378 
L 266.5228 84.360818 
L 267.716 78.929722 
L 268.9092 75.361808 
L 270.1024 73.224534 
L 271.2956 68.805474 
L 272.4888 67.625166 
L 273.682 65.729174 
L 274.8752 64.140791 
L 276.0684 64.103871 
L 277.2616 64.528603 
L 278.4548 66.014158 
L 279.648 66.44459 
L 280.8412 67.232546 
L 282.0344 67.661729 
L 283.2276 66.767089 
L 284.4208 66.071563 
L 285.614 65.167005 
L 286.8072 63.911014 
L 288.0004 62.464073 
L 289.1936 61.204599 
L 290.3868 61.058424 
L 291.58 60.312036 
L 292.7732 60.640497 
L 293.9664 60.544295 
L 295.1596 59.843061 
L 296.3528 59.48243 
L 297.546 60.351115 
L 298.7392 58.944103 
L 299.9324 58.875686 
L 301.1256 57.396308 
L 302.3188 58.915896 
L 303.512 57.707291 
L 304.7052 58.48894 
L 305.8984 60.224949 
L 307.0916 60.368974 
L 308.2848 61.250817 
L 309.478 60.618006 
L 310.6712 61.357416 
L 311.8644 61.30375 
L 313.0576 61.690324 
L 314.2508 61.748068 
L 315.444 62.661837 
L 316.6372 63.376781 
L 317.8304 65.181527 
L 319.0236 66.504888 
L 321.41 70.600709 
L 322.6032 70.300871 
L 323.7964 70.785395 
L 324.9896 71.606238 
L 326.1828 71.355933 
L 327.376 70.401803 
L 329.7624 70.308727 
L 330.9556 68.607734 
L 332.1488 70.209326 
L 333.342 69.503657 
L 334.5352 71.415568 
L 335.7284 71.69355 
L 336.9216 72.322681 
L 338.1148 72.444931 
L 341.6944 74.48931 
L 342.8876 76.565822 
L 344.0808 78.061936 
L 345.274 79.069724 
L 346.4672 81.545566 
L 347.6604 85.165802 
L 348.8536 84.575247 
L 350.0468 85.581181 
L 351.24 85.281555 
L 352.4332 84.769176 
L 353.6264 83.690372 
L 354.8196 82.421448 
L 358.3992 82.316507 
L 359.5924 83.421628 
L 360.7856 83.656617 
L 361.9788 82.742721 
L 363.172 82.844273 
L 364.3652 83.978101 
L 365.5584 84.10662 
L 367.9448 85.916602 
L 369.138 87.619815 
L 370.3312 89.123765 
L 371.5244 89.59104 
L 372.7176 91.477004 
L 373.9108 92.22199 
L 375.104 92.580154 
L 376.2972 92.583048 
L 377.4904 92.272603 
L 378.6836 90.889913 
L 379.8768 90.858863 
L 381.07 90.362383 
L 382.2632 90.613347 
L 384.6496 90.334662 
L 385.8428 90.522317 
L 387.036 89.75161 
L 388.2292 90.350649 
L 389.4224 89.040535 
L 391.8088 90.404878 
L 393.002 89.491625 
L 394.1952 90.444561 
L 395.3884 90.902584 
L 396.5816 92.151471 
L 397.7748 91.669036 
L 398.968 92.137959 
L 400.1612 91.710096 
L 401.3544 91.692426 
L 402.5476 90.877424 
L 403.7408 91.124632 
L 404.934 91.242089 
L 406.1272 89.215 
L 407.3204 89.682456 
L 408.5136 89.040599 
L 409.7068 91.300015 
L 410.9 91.058328 
L 412.0932 90.402935 
L 413.2864 89.36881 
L 414.4796 89.151793 
L 415.6728 88.011672 
L 416.866 89.479989 
L 418.0592 87.971012 
L 420.4456 88.26886 
L 421.6388 90.024575 
L 422.832 87.639347 
L 424.0252 89.390178 
L 425.2184 89.681213 
L 426.4116 89.537632 
L 427.6048 88.786588 
L 428.798 90.007857 
L 429.9912 90.220538 
L 432.3776 89.643176 
L 433.5708 90.20376 
L 434.764 90.24039 
L 435.9572 90.146802 
L 437.1504 92.143427 
L 438.3436 91.254774 
L 439.5368 92.670828 
L 440.73 95.110041 
L 441.9232 92.766873 
L 443.1164 93.494398 
L 444.3096 97.120954 
L 445.5028 99.493844 
L 447.8892 99.755533 
L 449.0824 100.928377 
L 450.2756 102.652042 
L 451.4688 102.03243 
L 452.662 102.451061 
L 453.8552 101.802128 
L 455.0484 102.800403 
L 456.2416 103.540863 
L 457.4348 103.274986 
L 459.8212 106.961822 
L 461.0144 106.98787 
L 462.2076 107.825998 
L 463.4008 108.82412 
L 464.594 111.033688 
L 465.7872 111.44532 
L 466.9804 112.34799 
L 468.1736 114.946647 
L 469.3668 116.507989 
L 470.56 121.372631 
L 471.7532 122.379524 
L 472.9464 124.935727 
L 474.1396 128.001729 
L 475.3328 126.03018 
L 476.526 127.472349 
L 477.7192 128.286955 
L 478.9124 127.344828 
L 480.1056 127.557503 
L 481.2988 129.456032 
L 482.492 128.654805 
L 483.6852 129.241947 
L 484.8784 129.098176 
L 486.0716 129.487647 
L 489.6512 131.929988 
L 490.8444 131.748533 
L 492.0376 133.485712 
L 493.2308 134.271189 
L 494.424 134.609804 
L 495.6172 137.505238 
L 496.8104 137.168312 
L 498.0036 140.997239 
L 499.1968 141.597698 
L 500.39 141.657485 
L 501.5832 145.233491 
L 502.7764 149.568494 
L 503.9696 146.399014 
L 505.1628 147.586446 
L 507.5492 148.691158 
L 508.7424 145.718509 
L 509.9356 144.142238 
L 511.1288 146.629122 
L 512.322 143.334223 
L 513.5152 144.92675 
L 514.7084 144.527586 
L 515.9016 141.875378 
L 517.0948 146.388197 
L 518.288 144.010012 
L 519.4812 146.367665 
L 520.6744 142.613647 
L 521.8676 145.036765 
L 523.0608 145.516053 
L 524.254 146.995887 
L 525.4472 149.661279 
L 526.6404 150.242136 
L 527.8336 152.617718 
L 529.0268 154.257484 
L 530.22 156.170215 
L 531.4132 156.094001 
L 532.6064 161.085182 
L 533.7996 160.292782 
L 534.9928 162.451551 
L 536.186 160.435651 
L 537.3792 159.285237 
L 538.5724 154.496688 
L 539.7656 153.561717 
L 540.9588 149.395219 
L 542.152 150.923703 
L 543.3452 144.627023 
L 544.5384 142.677769 
L 545.7316 142.014511 
L 546.9248 143.214338 
L 548.118 141.809423 
L 549.3112 143.949232 
L 550.5044 142.000489 
L 551.6976 147.97333 
L 552.8908 147.741502 
L 554.084 153.256303 
L 555.2772 156.946986 
L 556.4704 161.52637 
L 557.6636 164.039275 
L 558.8568 160.984892 
L 560.05 163.226576 
L 561.2432 161.055273 
L 562.4364 161.361321 
L 563.6296 157.195863 
L 564.8228 163.68687 
L 566.016 163.224689 
L 567.2092 160.498099 
L 568.4024 159.962308 
L 569.5956 156.633754 
L 570.7888 155.240639 
L 571.982 156.018502 
L 573.1752 152.891393 
L 574.3684 148.101794 
L 575.5616 146.939371 
L 576.7548 145.333403 
L 577.948 147.068934 
L 579.1412 147.867761 
L 580.3344 154.516377 
L 581.5276 156.358009 
L 582.7208 159.08829 
L 585.1072 159.227667 
L 586.3004 161.732413 
L 587.4936 164.871071 
L 589.88 164.951412 
L 591.0732 167.93863 
L 592.2664 168.367547 
L 593.4596 165.222112 
L 594.6528 164.827018 
L 595.846 163.470987 
L 597.0392 161.576304 
L 598.2324 160.422231 
L 599.4256 155.886085 
L 601.812 156.828937 
L 603.0052 157.717788 
L 604.1984 157.922251 
L 605.3916 153.173716 
L 606.5848 153.660834 
L 607.778 154.923625 
L 610.1644 154.496264 
L 611.3576 156.600575 
L 612.5508 159.894208 
L 613.744 159.828506 
L 614.9372 165.470054 
L 616.1304 166.486959 
L 617.3236 165.737199 
L 618.5168 169.73297 
L 619.71 166.417544 
L 620.9032 167.303998 
L 622.0964 170.188269 
L 623.2896 167.921233 
L 624.4828 170.719099 
L 625.676 169.749907 
L 626.8692 158.604897 
L 628.0624 162.672515 
L 629.2556 161.488528 
L 630.4488 162.467522 
L 631.642 159.021769 
L 632.8352 158.163448 
L 634.0284 155.303645 
L 635.2216 156.12178 
L 636.4148 149.85994 
L 637.608 156.370012 
L 638.8012 156.736877 
L 639.9944 152.8511 
L 641.1876 157.58013 
L 642.3808 157.073822 
L 643.574 161.393005 
L 644.7672 167.47775 
L 645.9604 163.842376 
L 647.1536 166.788597 
L 648.3468 166.265523 
L 649.54 169.786004 
L 650.7332 164.316276 
L 651.9264 168.361823 
L 653.1196 165.107001 
L 654.3128 168.896978 
L 655.506 164.688101 
L 656.6992 167.80618 
L 657.8924 165.615702 
L 659.0856 166.025981 
L 660.2788 164.608027 
L 661.472 162.512622 
L 662.6652 160.705847 
L 663.8584 155.037476 
L 665.0516 158.503561 
L 666.2448 155.932066 
L 667.438 161.972114 
L 668.6312 159.288643 
L 669.8244 161.669215 
L 671.0176 160.765406 
L 672.2108 168.79591 
L 673.404 162.64896 
L 674.5972 170.934203 
L 675.7904 160.823425 
L 676.9836 164.087989 
L 678.1768 171.384037 
L 679.37 171.837505 
L 679.37 171.837505 
" clip-path="url(#p5b12e96b0b)" style="fill: none; stroke: #2ca02c; stroke-width: 1.5; stroke-linecap: square"/>
   </g>
   <g id="line2d_28">
    <path d="M 82.77 47.696419 
L 83.9632 43.752792 
L 85.1564 44.207421 
L 86.3496 45.410818 
L 87.5428 46.161771 
L 88.736 47.148815 
L 89.9292 46.838225 
L 91.1224 46.722918 
L 92.3156 45.850631 
L 93.5088 45.339406 
L 94.702 45.057437 
L 95.8952 44.611851 
L 98.2816 44.334931 
L 99.4748 44.748888 
L 100.668 44.75524 
L 101.8612 44.877823 
L 103.0544 45.184508 
L 104.2476 44.723255 
L 105.4408 45.01412 
L 107.8272 46.883125 
L 109.0204 48.634976 
L 110.2136 49.083724 
L 111.4068 50.338609 
L 112.6 51.389831 
L 113.7932 51.876486 
L 114.9864 51.953786 
L 116.1796 50.843332 
L 117.3728 50.838527 
L 118.566 49.774423 
L 119.7592 49.113986 
L 120.9524 48.236509 
L 122.1456 47.085535 
L 123.3388 46.354002 
L 124.532 46.379757 
L 125.7252 45.784947 
L 126.9184 45.609622 
L 128.1116 46.080633 
L 130.498 46.423459 
L 131.6912 46.65619 
L 134.0776 48.200522 
L 135.2708 49.761398 
L 136.464 51.040402 
L 137.6572 51.982465 
L 138.8504 52.44038 
L 140.0436 53.495516 
L 141.2368 53.599409 
L 142.43 53.968493 
L 143.6232 53.28288 
L 144.8164 52.855305 
L 146.0096 51.863403 
L 147.2028 51.248071 
L 148.396 50.310396 
L 149.5892 48.602007 
L 150.7824 48.066401 
L 151.9756 47.733012 
L 153.1688 47.19552 
L 154.362 46.444407 
L 155.5552 46.093059 
L 156.7484 46.594071 
L 157.9416 46.504012 
L 159.1348 47.084697 
L 161.5212 48.780921 
L 162.7144 50.423894 
L 163.9076 51.515224 
L 165.1008 53.082759 
L 166.294 53.684372 
L 168.6804 55.580851 
L 169.8736 54.849212 
L 171.0668 54.456365 
L 172.26 54.446109 
L 173.4532 52.979157 
L 174.6464 51.31261 
L 175.8396 50.633067 
L 177.0328 49.61627 
L 178.226 49.276084 
L 179.4192 48.401696 
L 180.6124 48.87748 
L 181.8056 48.25013 
L 184.192 48.982369 
L 185.3852 49.162752 
L 186.5784 49.55636 
L 188.9648 51.265838 
L 190.158 52.520736 
L 192.5444 55.619347 
L 193.7376 56.577071 
L 194.9308 56.557751 
L 196.124 57.295104 
L 197.3172 57.692877 
L 198.5104 57.384328 
L 199.7036 57.236168 
L 200.8968 56.672213 
L 202.09 56.981604 
L 203.2832 57.566024 
L 204.4764 57.074038 
L 205.6696 58.787378 
L 206.8628 60.028963 
L 208.056 61.094103 
L 209.2492 64.165974 
L 210.4424 66.045771 
L 212.8288 68.666204 
L 214.022 68.816653 
L 215.2152 67.67874 
L 216.4084 67.102483 
L 217.6016 66.193708 
L 218.7948 64.42178 
L 219.988 63.694288 
L 221.1812 63.226994 
L 222.3744 63.63573 
L 223.5676 63.924727 
L 224.7608 66.523415 
L 227.1472 70.96376 
L 231.92 89.326519 
L 233.1132 92.736292 
L 234.3064 95.494956 
L 235.4996 94.430153 
L 236.6928 91.715737 
L 239.0792 87.124395 
L 240.2724 83.848381 
L 241.4656 81.908322 
L 242.6588 80.218799 
L 243.852 78.032189 
L 245.0452 76.842926 
L 246.2384 76.654996 
L 247.4316 75.434838 
L 248.6248 73.505165 
L 251.0112 74.45289 
L 252.2044 74.404085 
L 253.3976 76.058263 
L 254.5908 78.37637 
L 255.784 82.133088 
L 256.9772 85.242487 
L 258.1704 89.290774 
L 259.3636 94.982866 
L 260.5568 99.79036 
L 261.75 105.317121 
L 264.1364 115.016216 
L 265.3296 118.186722 
L 266.5228 119.990619 
L 267.716 128.01384 
L 268.9092 131.756125 
L 270.1024 134.841864 
L 272.4888 142.127983 
L 273.682 157.506216 
L 274.8752 159.295658 
L 276.0684 163.280179 
L 277.2616 154.629014 
L 278.4548 143.533049 
L 279.648 134.61012 
L 280.8412 126.982527 
L 282.0344 122.592772 
L 283.2276 116.454084 
L 284.4208 110.9098 
L 285.614 108.107833 
L 286.8072 102.806629 
L 288.0004 96.877231 
L 289.1936 92.671337 
L 290.3868 87.323552 
L 291.58 81.275317 
L 295.1596 69.138782 
L 296.3528 67.233502 
L 297.546 64.462402 
L 298.7392 63.174543 
L 299.9324 62.757494 
L 301.1256 62.079622 
L 302.3188 61.873879 
L 304.7052 62.909185 
L 308.2848 65.143246 
L 309.478 65.29359 
L 310.6712 66.293528 
L 311.8644 65.571853 
L 313.0576 65.0539 
L 314.2508 64.816405 
L 315.444 63.836203 
L 317.8304 64.27964 
L 319.0236 65.504585 
L 320.2168 66.505683 
L 321.41 67.272073 
L 322.6032 69.735607 
L 323.7964 69.731167 
L 324.9896 69.301545 
L 326.1828 69.108792 
L 327.376 69.284207 
L 328.5692 68.74929 
L 329.7624 67.946304 
L 330.9556 67.731825 
L 332.1488 68.190251 
L 333.342 68.308805 
L 335.7284 69.261279 
L 336.9216 69.650149 
L 338.1148 69.241214 
L 339.308 69.523618 
L 340.5012 70.981989 
L 341.6944 71.787081 
L 342.8876 74.060473 
L 344.0808 75.158165 
L 345.274 76.909581 
L 346.4672 79.543688 
L 348.8536 83.42078 
L 350.0468 82.874459 
L 351.24 82.534997 
L 353.6264 81.375651 
L 357.206 78.649077 
L 358.3992 79.460562 
L 359.5924 78.804861 
L 360.7856 79.111569 
L 361.9788 79.82765 
L 363.172 79.156017 
L 364.3652 79.375884 
L 365.5584 80.193578 
L 366.7516 80.089625 
L 367.9448 81.011158 
L 369.138 82.94935 
L 371.5244 87.826764 
L 372.7176 88.923837 
L 373.9108 89.438663 
L 375.104 90.131248 
L 376.2972 89.047604 
L 377.4904 88.141123 
L 378.6836 86.176169 
L 379.8768 85.98651 
L 381.07 83.457877 
L 382.2632 83.003762 
L 383.4564 82.878883 
L 385.8428 83.162492 
L 387.036 82.698057 
L 388.2292 83.071301 
L 389.4224 83.571401 
L 390.6156 83.425903 
L 391.8088 84.381825 
L 393.002 86.194775 
L 394.1952 86.533664 
L 396.5816 88.854471 
L 397.7748 89.958813 
L 398.968 89.14768 
L 401.3544 89.59364 
L 402.5476 88.659056 
L 403.7408 86.621786 
L 404.934 85.908108 
L 406.1272 84.744509 
L 407.3204 84.731375 
L 408.5136 84.236181 
L 410.9 83.959166 
L 412.0932 83.954509 
L 413.2864 82.50937 
L 414.4796 82.893856 
L 415.6728 84.367363 
L 416.866 84.331856 
L 418.0592 84.430065 
L 419.2524 85.874827 
L 420.4456 86.687759 
L 422.832 87.656532 
L 424.0252 87.864224 
L 425.2184 87.501451 
L 427.6048 87.197051 
L 428.798 85.468874 
L 429.9912 84.729961 
L 431.1844 86.072147 
L 432.3776 85.087278 
L 433.5708 85.98519 
L 434.764 86.100506 
L 435.9572 86.878346 
L 437.1504 85.455578 
L 438.3436 85.919376 
L 441.9232 89.251103 
L 443.1164 89.842457 
L 444.3096 92.078159 
L 446.696 94.391317 
L 449.0824 99.844378 
L 450.2756 99.887014 
L 451.4688 101.849881 
L 452.662 100.826579 
L 453.8552 102.279689 
L 456.2416 101.480781 
L 457.4348 102.546001 
L 458.628 100.859863 
L 459.8212 102.64593 
L 461.0144 103.508232 
L 462.2076 104.983684 
L 463.4008 104.937029 
L 464.594 106.485167 
L 465.7872 108.306811 
L 466.9804 109.012395 
L 470.56 116.010412 
L 472.9464 122.308775 
L 474.1396 127.361339 
L 475.3328 124.415483 
L 476.526 125.940804 
L 477.7192 127.852533 
L 478.9124 127.054437 
L 480.1056 126.485697 
L 482.492 128.041866 
L 483.6852 128.807375 
L 484.8784 128.292559 
L 486.0716 130.133292 
L 487.2648 130.009762 
L 488.458 130.879833 
L 489.6512 131.165679 
L 490.8444 133.6773 
L 492.0376 133.452834 
L 493.2308 134.929564 
L 494.424 136.895245 
L 495.6172 136.527145 
L 498.0036 142.469551 
L 499.1968 142.298392 
L 500.39 144.1583 
L 501.5832 146.517423 
L 502.7764 145.250571 
L 505.1628 149.938422 
L 506.356 146.260376 
L 507.5492 148.775759 
L 508.7424 148.360739 
L 509.9356 151.102429 
L 511.1288 150.094531 
L 512.322 145.935625 
L 513.5152 146.508437 
L 514.7084 149.458826 
L 515.9016 150.312493 
L 517.0948 149.415735 
L 518.288 150.531887 
L 519.4812 145.525718 
L 520.6744 148.157423 
L 521.8676 148.657063 
L 523.0608 148.742253 
L 524.254 150.811271 
L 525.4472 152.419986 
L 526.6404 156.84633 
L 527.8336 155.588411 
L 529.0268 162.543042 
L 530.22 164.897267 
L 531.4132 164.493092 
L 532.6064 165.484859 
L 533.7996 169.927292 
L 534.9928 169.67338 
L 536.186 166.638801 
L 537.3792 167.890828 
L 538.5724 167.108253 
L 539.7656 167.078134 
L 540.9588 165.753056 
L 542.152 167.934177 
L 543.3452 169.300035 
L 544.5384 166.457828 
L 545.7316 162.88747 
L 546.9248 168.593528 
L 548.118 164.23571 
L 549.3112 164.916228 
L 550.5044 164.006073 
L 551.6976 163.68534 
L 552.8908 167.45749 
L 554.084 168.924218 
L 555.2772 171.926174 
L 556.4704 173.675106 
L 557.6636 173.605997 
L 558.8568 179.54738 
L 560.05 179.579888 
L 561.2432 180.450123 
L 562.4364 183.414912 
L 563.6296 182.312659 
L 564.8228 180.516499 
L 566.016 188.861608 
L 567.2092 186.124149 
L 568.4024 183.936712 
L 569.5956 185.432215 
L 570.7888 183.501957 
L 571.982 184.226633 
L 573.1752 178.287653 
L 574.3684 180.259095 
L 575.5616 176.486636 
L 576.7548 174.923704 
L 577.948 176.825892 
L 579.1412 173.402867 
L 580.3344 173.070045 
L 581.5276 171.557991 
L 582.7208 174.485548 
L 583.914 171.553679 
L 585.1072 174.565606 
L 586.3004 179.497177 
L 587.4936 180.512436 
L 588.6868 182.513845 
L 589.88 182.908374 
L 591.0732 177.478915 
L 592.2664 177.593662 
L 593.4596 182.967753 
L 594.6528 178.752902 
L 595.846 176.898031 
L 597.0392 178.599442 
L 598.2324 179.382011 
L 599.4256 182.131285 
L 600.6188 176.034093 
L 601.812 179.201443 
L 603.0052 178.249983 
L 604.1984 175.610005 
L 605.3916 168.705547 
L 606.5848 167.95452 
L 607.778 161.757394 
L 608.9712 164.292514 
L 610.1644 163.920757 
L 611.3576 164.168462 
L 612.5508 169.841856 
L 613.744 166.348981 
L 614.9372 172.718259 
L 616.1304 173.25999 
L 617.3236 175.997425 
L 618.5168 176.145031 
L 619.71 176.874201 
L 622.0964 186.131604 
L 623.2896 183.498396 
L 624.4828 181.787132 
L 625.676 176.325107 
L 626.8692 181.906391 
L 628.0624 178.127241 
L 629.2556 173.683769 
L 630.4488 169.865151 
L 631.642 169.198107 
L 632.8352 171.986002 
L 634.0284 167.270517 
L 635.2216 168.026715 
L 636.4148 161.676529 
L 637.608 163.289851 
L 638.8012 159.196777 
L 639.9944 163.041786 
L 641.1876 168.651686 
L 642.3808 164.181076 
L 643.574 168.442058 
L 644.7672 165.084162 
L 645.9604 169.464536 
L 647.1536 166.730411 
L 648.3468 175.358535 
L 649.54 171.307455 
L 650.7332 175.430605 
L 651.9264 172.917061 
L 653.1196 179.249116 
L 654.3128 177.874797 
L 655.506 173.50588 
L 656.6992 175.539806 
L 657.8924 174.5362 
L 659.0856 172.257606 
L 660.2788 163.447021 
L 661.472 165.259159 
L 662.6652 165.116267 
L 663.8584 157.413207 
L 665.0516 163.833773 
L 666.2448 161.365944 
L 667.438 159.700695 
L 668.6312 157.252124 
L 669.8244 159.033242 
L 671.0176 159.856668 
L 672.2108 163.901491 
L 673.404 162.316564 
L 674.5972 163.134553 
L 675.7904 170.417307 
L 676.9836 172.360789 
L 678.1768 161.21577 
L 679.37 165.495371 
L 679.37 165.495371 
" clip-path="url(#p5b12e96b0b)" style="fill: none; stroke: #d62728; stroke-width: 1.5; stroke-linecap: square"/>
   </g>
   <g id="patch_3">
    <path d="M 52.94 390.04 
L 52.94 26.88 
" style="fill: none; stroke: #000000; stroke-width: 0.8; stroke-linejoin: miter; stroke-linecap: square"/>
   </g>
   <g id="patch_4">
    <path d="M 709.2 390.04 
L 709.2 26.88 
" style="fill: none; stroke: #000000; stroke-width: 0.8; stroke-linejoin: miter; stroke-linecap: square"/>
   </g>
   <g id="patch_5">
    <path d="M 52.94 390.04 
L 709.2 390.04 
" style="fill: none; stroke: #000000; stroke-width: 0.8; stroke-linejoin: miter; stroke-linecap: square"/>
   </g>
   <g id="patch_6">
    <path d="M 52.94 26.88 
L 709.2 26.88 
" style="fill: none; stroke: #000000; stroke-width: 0.8; stroke-linejoin: miter; stroke-linecap: square"/>
   </g>
   <g id="text_16">
    <!-- Effects of Various Chemicals on Sensor S21 Frequency Response -->
    <g transform="translate(187.237188 20.88) scale(0.12 -0.12)">
     <defs>
      <path id="DejaVuSans-45" d="M 628 4666 
L 3578 4666 
L 3578 4134 
L 1259 4134 
L 1259 2753 
L 3481 2753 
L 3481 2222 
L 1259 2222 
L 1259 531 
L 3634 531 
L 3634 0 
L 628 0 
L 628 4666 
z
" transform="scale(0.015625)"/>
      <path id="DejaVuSans-66" d="M 2375 4863 
L 2375 4384 
L 1825 4384 
Q 1516 4384 1395 4259 
Q 1275 4134 1275 3809 
L 1275 3500 
L 2222 3500 
L 2222 3053 
L 1275 3053 
L 1275 0 
L 697 0 
L 697 3053 
L 147 3053 
L 147 3500 
L 697 3500 
L 697 3744 
Q 697 4328 969 4595 
Q 1241 4863 1831 4863 
L 2375 4863 
z
" transform="scale(0.015625)"/>
      <path id="DejaVuSans-74" d="M 1172 4494 
L 1172 3500 
L 2356 3500 
L 2356 3053 
L 1172 3053 
L 1172 1153 
Q 1172 725 1289 603 
Q 1406 481 1766 481 
L 2356 481 
L 2356 0 
L 1766 0 
Q 1100 0 847 248 
Q 594 497 594 1153 
L 594 3053 
L 172 3053 
L 172 3500 
L 594 3500 
L 594 4494 
L 1172 4494 
z
" transform="scale(0.015625)"/>
      <path id="DejaVuSans-73" d="M 2834 3397 
L 2834 2853 
Q 2591 2978 2328 3040 
Q 2066 3103 1784 3103 
Q 1356 3103 1142 2972 
Q 928 2841 928 2578 
Q 928 2378 1081 2264 
Q 1234 2150 1697 2047 
L 1894 2003 
Q 2506 1872 2764 1633 
Q 3022 1394 3022 966 
Q 3022 478 2636 193 
Q 2250 -91 1575 -91 
Q 1294 -91 989 -36 
Q 684 19 347 128 
L 347 722 
Q 666 556 975 473 
Q 1284 391 1588 391 
Q 1994 391 2212 530 
Q 2431 669 2431 922 
Q 2431 1156 2273 1281 
Q 2116 1406 1581 1522 
L 1381 1569 
Q 847 1681 609 1914 
Q 372 2147 372 2553 
Q 372 3047 722 3315 
Q 1072 3584 1716 3584 
Q 2034 3584 2315 3537 
Q 2597 3491 2834 3397 
z
" transform="scale(0.015625)"/>
      <path id="DejaVuSans-6f" d="M 1959 3097 
Q 1497 3097 1228 2736 
Q 959 2375 959 1747 
Q 959 1119 1226 758 
Q 1494 397 1959 397 
Q 2419 397 2687 759 
Q 2956 1122 2956 1747 
Q 2956 2369 2687 2733 
Q 2419 3097 1959 3097 
z
M 1959 3584 
Q 2709 3584 3137 3096 
Q 3566 2609 3566 1747 
Q 3566 888 3137 398 
Q 2709 -91 1959 -91 
Q 1206 -91 779 398 
Q 353 888 353 1747 
Q 353 2609 779 3096 
Q 1206 3584 1959 3584 
z
" transform="scale(0.015625)"/>
      <path id="DejaVuSans-56" d="M 1831 0 
L 50 4666 
L 709 4666 
L 2188 738 
L 3669 4666 
L 4325 4666 
L 2547 0 
L 1831 0 
z
" transform="scale(0.015625)"/>
      <path id="DejaVuSans-61" d="M 2194 1759 
Q 1497 1759 1228 1600 
Q 959 1441 959 1056 
Q 959 750 1161 570 
Q 1363 391 1709 391 
Q 2188 391 2477 730 
Q 2766 1069 2766 1631 
L 2766 1759 
L 2194 1759 
z
M 3341 1997 
L 3341 0 
L 2766 0 
L 2766 531 
Q 2569 213 2275 61 
Q 1981 -91 1556 -91 
Q 1019 -91 701 211 
Q 384 513 384 1019 
Q 384 1609 779 1909 
Q 1175 2209 1959 2209 
L 2766 2209 
L 2766 2266 
Q 2766 2663 2505 2880 
Q 2244 3097 1772 3097 
Q 1472 3097 1187 3025 
Q 903 2953 641 2809 
L 641 3341 
Q 956 3463 1253 3523 
Q 1550 3584 1831 3584 
Q 2591 3584 2966 3190 
Q 3341 2797 3341 1997 
z
" transform="scale(0.015625)"/>
      <path id="DejaVuSans-69" d="M 603 3500 
L 1178 3500 
L 1178 0 
L 603 0 
L 603 3500 
z
M 603 4863 
L 1178 4863 
L 1178 4134 
L 603 4134 
L 603 4863 
z
" transform="scale(0.015625)"/>
      <path id="DejaVuSans-43" d="M 4122 4306 
L 4122 3641 
Q 3803 3938 3442 4084 
Q 3081 4231 2675 4231 
Q 1875 4231 1450 3742 
Q 1025 3253 1025 2328 
Q 1025 1406 1450 917 
Q 1875 428 2675 428 
Q 3081 428 3442 575 
Q 3803 722 4122 1019 
L 4122 359 
Q 3791 134 3420 21 
Q 3050 -91 2638 -91 
Q 1578 -91 968 557 
Q 359 1206 359 2328 
Q 359 3453 968 4101 
Q 1578 4750 2638 4750 
Q 3056 4750 3426 4639 
Q 3797 4528 4122 4306 
z
" transform="scale(0.015625)"/>
      <path id="DejaVuSans-68" d="M 3513 2113 
L 3513 0 
L 2938 0 
L 2938 2094 
Q 2938 2591 2744 2837 
Q 2550 3084 2163 3084 
Q 1697 3084 1428 2787 
Q 1159 2491 1159 1978 
L 1159 0 
L 581 0 
L 581 4863 
L 1159 4863 
L 1159 2956 
Q 1366 3272 1645 3428 
Q 1925 3584 2291 3584 
Q 2894 3584 3203 3211 
Q 3513 2838 3513 2113 
z
" transform="scale(0.015625)"/>
      <path id="DejaVuSans-6d" d="M 3328 2828 
Q 3544 3216 3844 3400 
Q 4144 3584 4550 3584 
Q 5097 3584 5394 3201 
Q 5691 2819 5691 2113 
L 5691 0 
L 5113 0 
L 5113 2094 
Q 5113 2597 4934 2840 
Q 4756 3084 4391 3084 
Q 3944 3084 3684 2787 
Q 3425 2491 3425 1978 
L 3425 0 
L 2847 0 
L 2847 2094 
Q 2847 2600 2669 2842 
Q 2491 3084 2119 3084 
Q 1678 3084 1418 2786 
Q 1159 2488 1159 1978 
L 1159 0 
L 581 0 
L 581 3500 
L 1159 3500 
L 1159 2956 
Q 1356 3278 1631 3431 
Q 1906 3584 2284 3584 
Q 2666 3584 2933 3390 
Q 3200 3197 3328 2828 
z
" transform="scale(0.015625)"/>
      <path id="DejaVuSans-6c" d="M 603 4863 
L 1178 4863 
L 1178 0 
L 603 0 
L 603 4863 
z
" transform="scale(0.015625)"/>
      <path id="DejaVuSans-52" d="M 2841 2188 
Q 3044 2119 3236 1894 
Q 3428 1669 3622 1275 
L 4263 0 
L 3584 0 
L 2988 1197 
Q 2756 1666 2539 1819 
Q 2322 1972 1947 1972 
L 1259 1972 
L 1259 0 
L 628 0 
L 628 4666 
L 2053 4666 
Q 2853 4666 3247 4331 
Q 3641 3997 3641 3322 
Q 3641 2881 3436 2590 
Q 3231 2300 2841 2188 
z
M 1259 4147 
L 1259 2491 
L 2053 2491 
Q 2509 2491 2742 2702 
Q 2975 2913 2975 3322 
Q 2975 3731 2742 3939 
Q 2509 4147 2053 4147 
L 1259 4147 
z
" transform="scale(0.015625)"/>
      <path id="DejaVuSans-70" d="M 1159 525 
L 1159 -1331 
L 581 -1331 
L 581 3500 
L 1159 3500 
L 1159 2969 
Q 1341 3281 1617 3432 
Q 1894 3584 2278 3584 
Q 2916 3584 3314 3078 
Q 3713 2572 3713 1747 
Q 3713 922 3314 415 
Q 2916 -91 2278 -91 
Q 1894 -91 1617 61 
Q 1341 213 1159 525 
z
M 3116 1747 
Q 3116 2381 2855 2742 
Q 2594 3103 2138 3103 
Q 1681 3103 1420 2742 
Q 1159 2381 1159 1747 
Q 1159 1113 1420 752 
Q 1681 391 2138 391 
Q 2594 391 2855 752 
Q 3116 1113 3116 1747 
z
" transform="scale(0.015625)"/>
     </defs>
     <use xlink:href="#DejaVuSans-45"/>
     <use xlink:href="#DejaVuSans-66" transform="translate(63.183594 0)"/>
     <use xlink:href="#DejaVuSans-66" transform="translate(98.388672 0)"/>
     <use xlink:href="#DejaVuSans-65" transform="translate(133.59375 0)"/>
     <use xlink:href="#DejaVuSans-63" transform="translate(195.117188 0)"/>
     <use xlink:href="#DejaVuSans-74" transform="translate(250.097656 0)"/>
     <use xlink:href="#DejaVuSans-73" transform="translate(289.306641 0)"/>
     <use xlink:href="#DejaVuSans-20" transform="translate(341.40625 0)"/>
     <use xlink:href="#DejaVuSans-6f" transform="translate(373.193359 0)"/>
     <use xlink:href="#DejaVuSans-66" transform="translate(434.375 0)"/>
     <use xlink:href="#DejaVuSans-20" transform="translate(469.580078 0)"/>
     <use xlink:href="#DejaVuSans-56" transform="translate(501.367188 0)"/>
     <use xlink:href="#DejaVuSans-61" transform="translate(562.025391 0)"/>
     <use xlink:href="#DejaVuSans-72" transform="translate(623.304688 0)"/>
     <use xlink:href="#DejaVuSans-69" transform="translate(664.417969 0)"/>
     <use xlink:href="#DejaVuSans-6f" transform="translate(692.201172 0)"/>
     <use xlink:href="#DejaVuSans-75" transform="translate(753.382812 0)"/>
     <use xlink:href="#DejaVuSans-73" transform="translate(816.761719 0)"/>
     <use xlink:href="#DejaVuSans-20" transform="translate(868.861328 0)"/>
     <use xlink:href="#DejaVuSans-43" transform="translate(900.648438 0)"/>
     <use xlink:href="#DejaVuSans-68" transform="translate(970.472656 0)"/>
     <use xlink:href="#DejaVuSans-65" transform="translate(1033.851562 0)"/>
     <use xlink:href="#DejaVuSans-6d" transform="translate(1095.375 0)"/>
     <use xlink:href="#DejaVuSans-69" transform="translate(1192.787109 0)"/>
     <use xlink:href="#DejaVuSans-63" transform="translate(1220.570312 0)"/>
     <use xlink:href="#DejaVuSans-61" transform="translate(1275.550781 0)"/>
     <use xlink:href="#DejaVuSans-6c" transform="translate(1336.830078 0)"/>
     <use xlink:href="#DejaVuSans-73" transform="translate(1364.613281 0)"/>
     <use xlink:href="#DejaVuSans-20" transform="translate(1416.712891 0)"/>
     <use xlink:href="#DejaVuSans-6f" transform="translate(1448.5 0)"/>
     <use xlink:href="#DejaVuSans-6e" transform="translate(1509.681641 0)"/>
     <use xlink:href="#DejaVuSans-20" transform="translate(1573.060547 0)"/>
     <use xlink:href="#DejaVuSans-53" transform="translate(1604.847656 0)"/>
     <use xlink:href="#DejaVuSans-65" transform="translate(1668.324219 0)"/>
     <use xlink:href="#DejaVuSans-6e" transform="translate(1729.847656 0)"/>
     <use xlink:href="#DejaVuSans-73" transform="translate(1793.226562 0)"/>
     <use xlink:href="#DejaVuSans-6f" transform="translate(1845.326172 0)"/>
     <use xlink:href="#DejaVuSans-72" transform="translate(1906.507812 0)"/>
     <use xlink:href="#DejaVuSans-20" transform="translate(1947.621094 0)"/>
     <use xlink:href="#DejaVuSans-53" transform="translate(1979.408203 0)"/>
     <use xlink:href="#DejaVuSans-32" transform="translate(2042.884766 0)"/>
     <use xlink:href="#DejaVuSans-31" transform="translate(2106.507812 0)"/>
     <use xlink:href="#DejaVuSans-20" transform="translate(2170.130859 0)"/>
     <use xlink:href="#DejaVuSans-46" transform="translate(2201.917969 0)"/>
     <use xlink:href="#DejaVuSans-72" transform="translate(2252.1875 0)"/>
     <use xlink:href="#DejaVuSans-65" transform="translate(2291.050781 0)"/>
     <use xlink:href="#DejaVuSans-71" transform="translate(2352.574219 0)"/>
     <use xlink:href="#DejaVuSans-75" transform="translate(2416.050781 0)"/>
     <use xlink:href="#DejaVuSans-65" transform="translate(2479.429688 0)"/>
     <use xlink:href="#DejaVuSans-6e" transform="translate(2540.953125 0)"/>
     <use xlink:href="#DejaVuSans-63" transform="translate(2604.332031 0)"/>
     <use xlink:href="#DejaVuSans-79" transform="translate(2659.3125 0)"/>
     <use xlink:href="#DejaVuSans-20" transform="translate(2718.492188 0)"/>
     <use xlink:href="#DejaVuSans-52" transform="translate(2750.279297 0)"/>
     <use xlink:href="#DejaVuSans-65" transform="translate(2815.261719 0)"/>
     <use xlink:href="#DejaVuSans-73" transform="translate(2876.785156 0)"/>
     <use xlink:href="#DejaVuSans-70" transform="translate(2928.884766 0)"/>
     <use xlink:href="#DejaVuSans-6f" transform="translate(2992.361328 0)"/>
     <use xlink:href="#DejaVuSans-6e" transform="translate(3053.542969 0)"/>
     <use xlink:href="#DejaVuSans-73" transform="translate(3116.921875 0)"/>
     <use xlink:href="#DejaVuSans-65" transform="translate(3169.021484 0)"/>
    </g>
   </g>
   <g id="legend_1">
    <g id="patch_7">
     <path d="M 573.489983 82.451513 
L 703.369 82.451513 
Q 705.035 82.451513 705.035 80.785513 
L 705.035 32.711 
Q 705.035 31.045 703.369 31.045 
L 573.489983 31.045 
Q 571.823983 31.045 571.823983 32.711 
L 571.823983 80.785513 
Q 571.823983 82.451513 573.489983 82.451513 
z
" style="fill: #ffffff; opacity: 0.8; stroke: #cccccc; stroke-linejoin: miter"/>
    </g>
    <g id="line2d_29">
     <path d="M 575.155983 37.790998 
L 583.485983 37.790998 
L 591.815983 37.790998 
" style="fill: none; stroke: #1f77b4; stroke-width: 1.5; stroke-linecap: square"/>
    </g>
    <g id="text_17">
     <!-- Empty Sensing Chamber -->
     <g transform="translate(598.479983 40.706498) scale(0.0833 -0.0833)">
      <defs>
       <path id="DejaVuSans-67" d="M 2906 1791 
Q 2906 2416 2648 2759 
Q 2391 3103 1925 3103 
Q 1463 3103 1205 2759 
Q 947 2416 947 1791 
Q 947 1169 1205 825 
Q 1463 481 1925 481 
Q 2391 481 2648 825 
Q 2906 1169 2906 1791 
z
M 3481 434 
Q 3481 -459 3084 -895 
Q 2688 -1331 1869 -1331 
Q 1566 -1331 1297 -1286 
Q 1028 -1241 775 -1147 
L 775 -588 
Q 1028 -725 1275 -790 
Q 1522 -856 1778 -856 
Q 2344 -856 2625 -561 
Q 2906 -266 2906 331 
L 2906 616 
Q 2728 306 2450 153 
Q 2172 0 1784 0 
Q 1141 0 747 490 
Q 353 981 353 1791 
Q 353 2603 747 3093 
Q 1141 3584 1784 3584 
Q 2172 3584 2450 3431 
Q 2728 3278 2906 2969 
L 2906 3500 
L 3481 3500 
L 3481 434 
z
" transform="scale(0.015625)"/>
       <path id="DejaVuSans-62" d="M 3116 1747 
Q 3116 2381 2855 2742 
Q 2594 3103 2138 3103 
Q 1681 3103 1420 2742 
Q 1159 2381 1159 1747 
Q 1159 1113 1420 752 
Q 1681 391 2138 391 
Q 2594 391 2855 752 
Q 3116 1113 3116 1747 
z
M 1159 2969 
Q 1341 3281 1617 3432 
Q 1894 3584 2278 3584 
Q 2916 3584 3314 3078 
Q 3713 2572 3713 1747 
Q 3713 922 3314 415 
Q 2916 -91 2278 -91 
Q 1894 -91 1617 61 
Q 1341 213 1159 525 
L 1159 0 
L 581 0 
L 581 4863 
L 1159 4863 
L 1159 2969 
z
" transform="scale(0.015625)"/>
      </defs>
      <use xlink:href="#DejaVuSans-45"/>
      <use xlink:href="#DejaVuSans-6d" transform="translate(63.183594 0)"/>
      <use xlink:href="#DejaVuSans-70" transform="translate(160.595703 0)"/>
      <use xlink:href="#DejaVuSans-74" transform="translate(224.072266 0)"/>
      <use xlink:href="#DejaVuSans-79" transform="translate(263.28125 0)"/>
      <use xlink:href="#DejaVuSans-20" transform="translate(322.460938 0)"/>
      <use xlink:href="#DejaVuSans-53" transform="translate(354.248047 0)"/>
      <use xlink:href="#DejaVuSans-65" transform="translate(417.724609 0)"/>
      <use xlink:href="#DejaVuSans-6e" transform="translate(479.248047 0)"/>
      <use xlink:href="#DejaVuSans-73" transform="translate(542.626953 0)"/>
      <use xlink:href="#DejaVuSans-69" transform="translate(594.726562 0)"/>
      <use xlink:href="#DejaVuSans-6e" transform="translate(622.509766 0)"/>
      <use xlink:href="#DejaVuSans-67" transform="translate(685.888672 0)"/>
      <use xlink:href="#DejaVuSans-20" transform="translate(749.365234 0)"/>
      <use xlink:href="#DejaVuSans-43" transform="translate(781.152344 0)"/>
      <use xlink:href="#DejaVuSans-68" transform="translate(850.976562 0)"/>
      <use xlink:href="#DejaVuSans-61" transform="translate(914.355469 0)"/>
      <use xlink:href="#DejaVuSans-6d" transform="translate(975.634766 0)"/>
      <use xlink:href="#DejaVuSans-62" transform="translate(1073.046875 0)"/>
      <use xlink:href="#DejaVuSans-65" transform="translate(1136.523438 0)"/>
      <use xlink:href="#DejaVuSans-72" transform="translate(1198.046875 0)"/>
     </g>
    </g>
    <g id="line2d_30">
     <path d="M 575.155983 50.017877 
L 583.485983 50.017877 
L 591.815983 50.017877 
" style="fill: none; stroke: #ff7f0e; stroke-width: 1.5; stroke-linecap: square"/>
    </g>
    <g id="text_18">
     <!-- IPA 91% -->
     <g transform="translate(598.479983 52.933377) scale(0.0833 -0.0833)">
      <defs>
       <path id="DejaVuSans-49" d="M 628 4666 
L 1259 4666 
L 1259 0 
L 628 0 
L 628 4666 
z
" transform="scale(0.015625)"/>
       <path id="DejaVuSans-50" d="M 1259 4147 
L 1259 2394 
L 2053 2394 
Q 2494 2394 2734 2622 
Q 2975 2850 2975 3272 
Q 2975 3691 2734 3919 
Q 2494 4147 2053 4147 
L 1259 4147 
z
M 628 4666 
L 2053 4666 
Q 2838 4666 3239 4311 
Q 3641 3956 3641 3272 
Q 3641 2581 3239 2228 
Q 2838 1875 2053 1875 
L 1259 1875 
L 1259 0 
L 628 0 
L 628 4666 
z
" transform="scale(0.015625)"/>
       <path id="DejaVuSans-41" d="M 2188 4044 
L 1331 1722 
L 3047 1722 
L 2188 4044 
z
M 1831 4666 
L 2547 4666 
L 4325 0 
L 3669 0 
L 3244 1197 
L 1141 1197 
L 716 0 
L 50 0 
L 1831 4666 
z
" transform="scale(0.015625)"/>
       <path id="DejaVuSans-25" d="M 4653 2053 
Q 4381 2053 4226 1822 
Q 4072 1591 4072 1178 
Q 4072 772 4226 539 
Q 4381 306 4653 306 
Q 4919 306 5073 539 
Q 5228 772 5228 1178 
Q 5228 1588 5073 1820 
Q 4919 2053 4653 2053 
z
M 4653 2450 
Q 5147 2450 5437 2106 
Q 5728 1763 5728 1178 
Q 5728 594 5436 251 
Q 5144 -91 4653 -91 
Q 4153 -91 3862 251 
Q 3572 594 3572 1178 
Q 3572 1766 3864 2108 
Q 4156 2450 4653 2450 
z
M 1428 4353 
Q 1159 4353 1004 4120 
Q 850 3888 850 3481 
Q 850 3069 1003 2837 
Q 1156 2606 1428 2606 
Q 1700 2606 1854 2837 
Q 2009 3069 2009 3481 
Q 2009 3884 1853 4118 
Q 1697 4353 1428 4353 
z
M 4250 4750 
L 4750 4750 
L 1831 -91 
L 1331 -91 
L 4250 4750 
z
M 1428 4750 
Q 1922 4750 2215 4408 
Q 2509 4066 2509 3481 
Q 2509 2891 2217 2550 
Q 1925 2209 1428 2209 
Q 931 2209 642 2551 
Q 353 2894 353 3481 
Q 353 4063 643 4406 
Q 934 4750 1428 4750 
z
" transform="scale(0.015625)"/>
      </defs>
      <use xlink:href="#DejaVuSans-49"/>
      <use xlink:href="#DejaVuSans-50" transform="translate(29.492188 0)"/>
      <use xlink:href="#DejaVuSans-41" transform="translate(83.419922 0)"/>
      <use xlink:href="#DejaVuSans-20" transform="translate(151.828125 0)"/>
      <use xlink:href="#DejaVuSans-39" transform="translate(183.615234 0)"/>
      <use xlink:href="#DejaVuSans-31" transform="translate(247.238281 0)"/>
      <use xlink:href="#DejaVuSans-25" transform="translate(310.861328 0)"/>
     </g>
    </g>
    <g id="line2d_31">
     <path d="M 575.155983 62.244755 
L 583.485983 62.244755 
L 591.815983 62.244755 
" style="fill: none; stroke: #2ca02c; stroke-width: 1.5; stroke-linecap: square"/>
    </g>
    <g id="text_19">
     <!-- Saline 50% -->
     <g transform="translate(598.479983 65.160255) scale(0.0833 -0.0833)">
      <use xlink:href="#DejaVuSans-53"/>
      <use xlink:href="#DejaVuSans-61" transform="translate(63.476562 0)"/>
      <use xlink:href="#DejaVuSans-6c" transform="translate(124.755859 0)"/>
      <use xlink:href="#DejaVuSans-69" transform="translate(152.539062 0)"/>
      <use xlink:href="#DejaVuSans-6e" transform="translate(180.322266 0)"/>
      <use xlink:href="#DejaVuSans-65" transform="translate(243.701172 0)"/>
      <use xlink:href="#DejaVuSans-20" transform="translate(305.224609 0)"/>
      <use xlink:href="#DejaVuSans-35" transform="translate(337.011719 0)"/>
      <use xlink:href="#DejaVuSans-30" transform="translate(400.634766 0)"/>
      <use xlink:href="#DejaVuSans-25" transform="translate(464.257812 0)"/>
     </g>
    </g>
    <g id="line2d_32">
     <path d="M 575.155983 74.471633 
L 583.485983 74.471633 
L 591.815983 74.471633 
" style="fill: none; stroke: #d62728; stroke-width: 1.5; stroke-linecap: square"/>
    </g>
    <g id="text_20">
     <!-- Water -->
     <g transform="translate(598.479983 77.387133) scale(0.0833 -0.0833)">
      <defs>
       <path id="DejaVuSans-57" d="M 213 4666 
L 850 4666 
L 1831 722 
L 2809 4666 
L 3519 4666 
L 4500 722 
L 5478 4666 
L 6119 4666 
L 4947 0 
L 4153 0 
L 3169 4050 
L 2175 0 
L 1381 0 
L 213 4666 
z
" transform="scale(0.015625)"/>
      </defs>
      <use xlink:href="#DejaVuSans-57"/>
      <use xlink:href="#DejaVuSans-61" transform="translate(92.501953 0)"/>
      <use xlink:href="#DejaVuSans-74" transform="translate(153.78125 0)"/>
      <use xlink:href="#DejaVuSans-65" transform="translate(192.990234 0)"/>
      <use xlink:href="#DejaVuSans-72" transform="translate(254.513672 0)"/>
     </g>
    </g>
   </g>
  </g>
 </g>
 <defs>
  <clipPath id="p5b12e96b0b">
   <rect x="52.94" y="26.88" width="656.26" height="363.16"/>
  </clipPath>
 </defs>
</svg>
